<svg width="200" height="200" viewBox="0 0 200 200" fill="none" xmlns="http://www.w3.org/2000/svg">
<g clip-path="url(#clip0_5_13)">
<rect width="200" height="200" />
<path d="M99.049 0C99.049 1.89296 99.2405 3.74435 99.4103 5.5914C99.6244 7.91987 99.7257 10.5209 99.8258 12.9032C99.9279 15.3336 99.8431 18.8012 100.268 21.0514C100.638 23.0055 100.819 26.9581 100.837 29.1039C100.885 34.8079 101 40.4953 101 46.2366C101 57.9744 99.8619 69.5874 99.8619 81.3381C99.8619 93.5001 99.5368 105.616 99.5368 117.802C99.5368 123.889 99.2116 129.94 99.2116 136.057C99.2116 140.791 99.049 145.497 99.049 150.203C99.049 155.375 98.5613 160.381 98.5613 165.591C98.5613 169.007 98.4409 172.967 98.1548 176.296C97.8628 179.696 98.0735 183.613 98.0735 187.097C98.0735 191.398 99.049 195.699 99.049 200" stroke="black" stroke-width="3" stroke-linecap="round"/>
<path d="M0 100.3C1.04042 100.361 2.45452 100.357 3.5 100.3C9 100 13.6293 100.516 17.5 100.811C32.0364 101.919 43.4549 101.334 58.1571 100.811C65.8391 100.538 73.5613 99.9013 81.2546 99.8401C90.8817 99.7634 100.455 99.8401 110.09 99.8401C125.472 99.8401 140.854 99.8401 156.236 99.8401C170.854 99.8401 185.377 100.3 200 100.3" stroke="black" stroke-width="3" stroke-linecap="round"/>
</g>
<defs>
<clipPath id="clip0_5_13">
<rect width="200" height="200"/>
</clipPath>
</defs>
</svg>
