<svg width="271" height="169" viewBox="0 0 271 169" fill="none" xmlns="http://www.w3.org/2000/svg">
<path d="M1.83784 2.79674C6.07492 2.79674 8.58876 3.08264 12.8114 2.79674C17.6156 2.47147 22.5496 2.22976 27.3608 2.22976C36.6761 2.22976 45.8931 3 55.2484 3H70.8117C74.4066 3 77.9786 2.80744 81.5822 2.80744C85.328 2.80744 89.1335 2.95846 92.8399 2.60418C96.3215 2.2714 99.9459 2.77864 103.4 2.32604C107.054 1.84718 111.064 2.03721 114.763 2.03721H133.67C139.561 2.03721 145.355 2.42232 151.248 2.42232C157.073 2.42232 162.885 2.61488 168.694 2.61488C173.892 2.61488 179.045 2.80744 184.284 2.80744H195.186C199.016 2.80744 202.744 2.22976 206.549 2.22976C218.741 2.22976 231.05 2.03721 243.285 2.03721H251.212C253.68 2.03721 254.5 2.5 257 2.5C258.5 2.5 260.627 2.54678 261.403 2.62558C262.492 2.73621 263.518 2.80744 264.629 2.80744H269.53C269.583 4.69085 269.688 6.82385 269.688 8.42857C269.688 11.1898 269.844 13.9053 269.844 16.6561C269.844 25.2538 269.376 33.7683 269.376 42.3571V52.9656C269.376 57.4739 269.063 61.9911 269.063 66.4709V91.4974C269.063 98.837 268.788 106.379 269.384 113.653C269.961 120.685 270 127.674 270 134.844C270 140.879 269.844 146.902 269.844 152.952V159.381C269.844 161.848 269.609 164.612 270 167C269.175 167 268.401 166.983 267.562 167C266.602 167.02 265.707 167.021 264.753 167.111C263.347 167.243 261.621 167.286 260.221 167.286C254.447 167.286 248.74 167.857 242.968 167.857C230.703 167.857 218.371 168 206.078 168H196.908C193.814 168 190.781 167.78 187.712 167.714C185.478 167.666 183.272 167.304 181.034 167.286C178.681 167.266 176.264 167.143 173.931 166.968C169.023 166.601 164.058 166.817 159.143 166.46C156.04 166.235 152.677 166.143 149.549 166.143C147.174 166.143 144.786 165.857 142.42 165.857C135.541 165.857 128.754 165.429 121.882 165.429C108.801 165.429 95.7768 165 82.712 165C72.6112 165 62.6821 165.571 52.606 165.571H19.5583C12.9981 165.571 7.88581 166 1.33977 166C1.33977 163.805 1.07139 161.244 1.34899 159.095C1.719 156.232 2.00386 153.253 2.00386 150.309C2.00386 143.439 3 136.747 3 129.906C3 125.395 2.41285 120.816 2.00386 116.356C1.67543 112.774 1.67182 109.257 1.67182 105.623V94.1364C1.67182 90.5406 1.46113 87.0555 1.18297 83.5328C0.943941 80.5056 1.00772 77.4081 1.00772 74.3178V68.5812C1.00772 67.1858 0.985718 65.1637 1.21064 63.779C1.57288 61.549 1.62591 58.8625 1.67144 56.5558L1.67182 56.5369C1.71242 54.4798 1.81677 52.4049 1.83784 50.359C1.87676 46.5803 2.00386 42.8647 2.00386 39.0934C2.00386 34.6835 2.16988 30.2972 2.16988 25.881C2.16988 22.4357 1.92759 19.0115 1.83784 15.6018C1.71689 11.0066 1.83784 7.43183 1.83784 2.79674Z" fill="#D9D9D9"/>
<path d="M1.83784 2.79674V1.79674C1.28555 1.79674 0.837838 2.24446 0.837838 2.79674H1.83784ZM12.8114 2.79674L12.879 3.79446L12.8114 2.79674ZM92.8399 2.60418L92.7447 1.60872L92.7447 1.60872L92.8399 2.60418ZM103.4 2.32604L103.27 1.33452L103.27 1.33452L103.4 2.32604ZM261.403 2.62558L261.302 3.62046L261.302 3.62046L261.403 2.62558ZM1.83784 15.6018L2.83749 15.5755L1.83784 15.6018ZM1.83784 50.359L2.83779 50.3693L2.83779 50.3693L1.83784 50.359ZM1.67182 56.5369L0.67201 56.5171L0.67201 56.5171L1.67182 56.5369ZM1.67144 56.5558L2.67125 56.5755L2.67125 56.5755L1.67144 56.5558ZM1.21064 63.779L0.223578 63.6187L0.223577 63.6187L1.21064 63.779ZM1.18297 83.5328L0.186073 83.6115L0.186073 83.6115L1.18297 83.5328ZM2.00386 116.356L1.00804 116.447L1.00804 116.447L2.00386 116.356ZM1.34899 159.095L2.34075 159.223L2.34075 159.223L1.34899 159.095ZM1.33977 166H0.339769C0.339769 166.552 0.787484 167 1.33977 167L1.33977 166ZM270.5 1C270.5 0.447715 270.052 0 269.5 0C268.948 0 268.5 0.447715 268.5 1H270.5ZM269.384 113.653L270.381 113.572L270.381 113.572L269.384 113.653ZM270 167V168C270.293 168 270.572 167.871 270.762 167.647C270.952 167.424 271.034 167.128 270.987 166.838L270 167ZM267.562 167L267.582 168L267.582 168L267.562 167ZM264.753 167.111L264.846 168.107L264.846 168.107L264.753 167.111ZM187.712 167.714L187.691 168.714L187.712 167.714ZM181.034 167.286L181.042 166.286L181.042 166.286L181.034 167.286ZM173.931 166.968L173.856 167.965L173.856 167.965L173.931 166.968ZM159.143 166.46L159.216 165.463L159.216 165.463L159.143 166.46ZM1.83784 3.79674C5.96448 3.79674 8.62017 4.0828 12.879 3.79446L12.7439 1.79903C8.55734 2.08248 6.18537 1.79674 1.83784 1.79674V3.79674ZM12.879 3.79446C17.6721 3.46994 22.5813 3.22976 27.3608 3.22976V1.22976C22.518 1.22976 17.5592 1.473 12.7439 1.79903L12.879 3.79446ZM27.3608 3.22976C31.9943 3.22976 36.6066 3.42132 41.2481 3.61402C45.8829 3.80644 50.5466 4 55.2484 4V2C50.5949 2 45.9725 1.80844 41.3311 1.61574C36.6965 1.42333 32.0427 1.22976 27.3608 1.22976V3.22976ZM55.2484 4H70.8117V2H55.2484V4ZM70.8117 4C72.6248 4 74.4299 3.95144 76.2205 3.90336C78.0155 3.85516 79.796 3.80744 81.5822 3.80744V1.80744C79.7647 1.80744 77.9575 1.856 76.1668 1.90408C74.3718 1.95228 72.5935 2 70.8117 2V4ZM81.5822 3.80744C85.2735 3.80744 89.1655 3.95996 92.935 3.59965L92.7447 1.60872C89.1014 1.95697 85.3825 1.80744 81.5822 1.80744V3.80744ZM92.935 3.59965C94.6083 3.43971 96.3223 3.48097 98.1141 3.50991C99.8822 3.53847 101.721 3.55464 103.53 3.31757L103.27 1.33452C101.625 1.55004 99.9244 1.53889 98.1464 1.51017C96.3921 1.48184 94.5531 1.43587 92.7447 1.60872L92.935 3.59965ZM103.53 3.31757C107.098 2.84995 110.993 3.03721 114.763 3.03721V1.03721C111.134 1.03721 107.01 0.844407 103.27 1.33452L103.53 3.31757ZM114.763 3.03721H133.67V1.03721H114.763V3.03721ZM133.67 3.03721C136.597 3.03721 139.501 3.13285 142.425 3.22922C145.344 3.32541 148.282 3.42232 151.248 3.42232V1.42232C148.321 1.42232 145.415 1.32667 142.491 1.23031C139.572 1.13411 136.635 1.03721 133.67 1.03721V3.03721ZM151.248 3.42232C154.151 3.42232 157.052 3.4703 159.961 3.51847C162.866 3.56658 165.78 3.61488 168.694 3.61488V1.61488C165.799 1.61488 162.902 1.5669 159.994 1.51874C157.088 1.47062 154.17 1.42232 151.248 1.42232V3.42232ZM168.694 3.61488C171.283 3.61488 173.861 3.66282 176.455 3.71099C179.047 3.7591 181.654 3.80744 184.284 3.80744V1.80744C181.676 1.80744 179.087 1.7595 176.492 1.71133C173.901 1.66322 171.304 1.61488 168.694 1.61488V3.61488ZM184.284 3.80744H195.186V1.80744H184.284V3.80744ZM195.186 3.80744C197.146 3.80744 199.073 3.65965 200.953 3.51568C202.846 3.37078 204.691 3.22976 206.549 3.22976V1.22976C204.602 1.22976 202.681 1.37758 200.801 1.52152C198.908 1.66639 197.057 1.80744 195.186 1.80744V3.80744ZM206.549 3.22976C212.65 3.22976 218.779 3.18159 224.909 3.13345C231.04 3.08531 237.172 3.03721 243.285 3.03721V1.03721C237.163 1.03721 231.023 1.08538 224.893 1.13352C218.762 1.18166 212.641 1.22976 206.549 1.22976V3.22976ZM243.285 3.03721H251.212V1.03721H243.285V3.03721ZM251.212 3.03721C252.373 3.03721 253.138 3.1445 253.955 3.25894C254.792 3.37609 255.678 3.5 257 3.5V1.5C255.822 1.5 255.048 1.39251 254.233 1.27827C253.398 1.16131 252.519 1.03721 251.212 1.03721V3.03721ZM257 3.5C258.506 3.5 260.584 3.54756 261.302 3.62046L261.504 1.6307C260.67 1.54601 258.494 1.5 257 1.5V3.5ZM261.302 3.62046C262.412 3.7332 263.473 3.80744 264.629 3.80744V1.80744C263.562 1.80744 262.572 1.73922 261.504 1.6307L261.302 3.62046ZM264.629 3.80744H269.53V1.80744H264.629V3.80744ZM0.837838 2.79674C0.837838 7.39183 0.716847 11.0181 0.838185 15.6281L2.83749 15.5755C2.71693 10.9951 2.83784 7.47182 2.83784 2.79674H0.837838ZM0.838185 15.6281C0.92981 19.1092 1.16988 22.441 1.16988 25.881H3.16988C3.16988 22.4305 2.92536 18.9139 2.83749 15.5755L0.838185 15.6281ZM1.16988 25.881C1.16988 28.0781 1.12859 30.2693 1.08705 32.4707C1.04557 34.669 1.00386 36.8774 1.00386 39.0934H3.00386C3.00386 36.8994 3.04516 34.7098 3.0867 32.5084C3.12817 30.3101 3.16988 28.1001 3.16988 25.881H1.16988ZM1.00386 39.0934C1.00386 42.869 0.877249 46.5274 0.837891 50.3487L2.83779 50.3693C2.87626 46.6333 3.00386 42.8605 3.00386 39.0934H1.00386ZM0.837891 50.3487C0.816638 52.4123 0.713899 54.3952 0.67201 56.5171L2.67162 56.5566C2.71095 54.5644 2.81689 52.3976 2.83779 50.3693L0.837891 50.3487ZM0.67201 56.5171L0.671637 56.536L2.67125 56.5755L2.67162 56.5566L0.67201 56.5171ZM0.671638 56.536C0.625738 58.8613 0.572248 61.4722 0.223578 63.6187L2.1977 63.9394C2.57351 61.6258 2.62608 58.8638 2.67125 56.5755L0.671638 56.536ZM0.223577 63.6187C-0.0176584 65.1038 0.00772307 67.2285 0.00772307 68.5812H2.00772C2.00772 67.1431 1.98909 65.2236 2.1977 63.9394L0.223577 63.6187ZM0.00772307 68.5812V74.3178H2.00772V68.5812H0.00772307ZM0.00772307 74.3178C0.00772307 77.3783 -0.0569842 80.5333 0.186073 83.6115L2.17987 83.454C1.94487 80.4779 2.00772 77.4379 2.00772 74.3178H0.00772307ZM0.186073 83.6115C0.463376 87.1233 0.671815 90.5787 0.671815 94.1364H2.67182C2.67182 90.5025 2.45888 86.9876 2.17987 83.454L0.186073 83.6115ZM0.671815 94.1364V105.623H2.67182V94.1364H0.671815ZM0.671815 105.623C0.671815 109.251 0.674774 112.813 1.00804 116.447L2.99968 116.265C2.67608 112.736 2.67182 109.263 2.67182 105.623H0.671815ZM1.00804 116.447C1.42157 120.957 2 125.455 2 129.906H4C4 125.334 3.40413 120.675 2.99968 116.265L1.00804 116.447ZM2 129.906C2 133.284 1.7541 136.631 1.50462 140.024C1.25601 143.405 1.00386 146.831 1.00386 150.309H3.00386C3.00386 146.917 3.24978 143.563 3.49924 140.17C3.74783 136.789 4 133.37 4 129.906H2ZM1.00386 150.309C1.00386 153.192 0.724721 156.123 0.357237 158.967L2.34075 159.223C2.71329 156.34 3.00386 153.314 3.00386 150.309H1.00386ZM0.357237 158.967C0.208004 160.122 0.207972 161.364 0.240655 162.558C0.274253 163.785 0.339769 164.917 0.339769 166H2.33977C2.33977 164.888 2.2711 163.642 2.23991 162.503C2.2078 161.33 2.21238 160.217 2.34075 159.223L0.357237 158.967ZM268.688 8.42857C268.688 9.82578 268.727 11.2091 268.766 12.5747C268.805 13.945 268.844 15.2973 268.844 16.6561H270.844C270.844 15.264 270.804 13.8832 270.765 12.5177C270.726 11.1476 270.688 9.79258 270.688 8.42857H268.688ZM268.844 16.6561C268.844 20.939 268.727 25.2034 268.61 29.4826C268.493 33.7573 268.376 38.0468 268.376 42.3571H270.376C270.376 38.0787 270.492 33.8165 270.609 29.5373C270.726 25.2626 270.844 20.9709 270.844 16.6561H268.844ZM268.376 42.3571V52.9656H270.376V42.3571H268.376ZM268.376 52.9656C268.376 55.1996 268.298 57.4387 268.22 59.6943C268.142 61.9441 268.063 64.2108 268.063 66.4709H270.063C270.063 64.2512 270.141 62.0194 270.219 59.7636C270.297 57.5136 270.376 55.2399 270.376 52.9656H268.376ZM268.063 66.4709V91.4974H270.063V66.4709H268.063ZM268.063 91.4974C268.063 98.7865 267.787 106.406 268.388 113.735L270.381 113.572C269.789 106.351 270.063 98.8875 270.063 91.4974H268.063ZM268.388 113.735C268.96 120.721 269 127.673 269 134.844H271C271 127.676 270.961 120.649 270.381 113.572L268.388 113.735ZM269 134.844C269 137.854 268.961 140.862 268.922 143.879C268.883 146.895 268.844 149.92 268.844 152.952H270.844C270.844 149.935 270.883 146.923 270.922 143.905C270.961 140.89 271 137.869 271 134.844H269ZM268.844 152.952V159.381H270.844V152.952H268.844ZM268.844 159.381C268.844 161.718 268.604 164.668 269.013 167.162L270.987 166.838C270.613 164.557 270.844 161.977 270.844 159.381H268.844ZM270 166C269.205 166 268.392 165.983 267.541 166L267.582 168C268.41 167.983 269.145 168 270 168V166ZM267.541 166C266.606 166.02 265.66 166.021 264.659 166.115L264.846 168.107C265.753 168.022 266.599 168.02 267.582 168L267.541 166ZM264.659 166.115C263.298 166.243 261.608 166.286 260.221 166.286V168.286C261.634 168.286 263.395 168.243 264.846 168.107L264.659 166.115ZM260.221 166.286C257.305 166.286 254.41 166.43 251.544 166.573C248.67 166.716 245.825 166.857 242.968 166.857V168.857C245.883 168.857 248.778 168.713 251.644 168.57C254.517 168.427 257.363 168.286 260.221 168.286V166.286ZM242.968 166.857C236.832 166.857 230.68 166.893 224.528 166.929C218.374 166.964 212.221 167 206.078 167V169C212.228 169 218.387 168.964 224.539 168.929C230.693 168.893 236.839 168.857 242.968 168.857V166.857ZM206.078 167H196.908V169H206.078V167ZM196.908 167C193.803 167 190.895 166.782 187.733 166.715L187.691 168.714C190.668 168.778 193.824 169 196.908 169V167ZM187.733 166.715C186.657 166.691 185.582 166.593 184.463 166.493C183.356 166.394 182.207 166.295 181.042 166.286L181.025 168.286C182.099 168.295 183.172 168.386 184.286 168.485C185.387 168.583 186.533 168.689 187.691 168.714L187.733 166.715ZM181.042 166.286C178.718 166.266 176.324 166.145 174.006 165.971L173.856 167.965C176.205 168.141 178.645 168.266 181.025 168.286L181.042 166.286ZM174.006 165.971C171.517 165.785 169.019 165.747 166.554 165.71C164.08 165.674 161.639 165.639 159.216 165.463L159.071 167.458C161.562 167.639 164.061 167.674 166.525 167.71C168.998 167.747 171.437 167.784 173.856 167.965L174.006 165.971ZM159.216 165.463C156.083 165.236 152.695 165.143 149.549 165.143V167.143C152.66 167.143 155.998 167.235 159.071 167.458L159.216 165.463ZM149.549 165.143C148.397 165.143 147.236 165.074 146.041 165.002C144.857 164.931 143.639 164.857 142.42 164.857V166.857C143.568 166.857 144.727 166.926 145.922 166.998C147.106 167.069 148.327 167.143 149.549 167.143V165.143ZM142.42 164.857C138.999 164.857 135.598 164.751 132.18 164.643C128.767 164.536 125.336 164.429 121.882 164.429V166.429C125.3 166.429 128.699 166.535 132.117 166.642C135.53 166.749 138.963 166.857 142.42 166.857V164.857ZM121.882 164.429C115.351 164.429 108.833 164.322 102.307 164.214C95.7843 164.107 89.254 164 82.712 164V166C89.2349 166 95.7488 166.107 102.274 166.214C108.797 166.321 115.331 166.429 121.882 166.429V164.429ZM82.712 164C77.645 164 72.6233 164.143 67.6212 164.286C62.6145 164.429 57.6274 164.571 52.606 164.571V166.571C57.6607 166.571 62.6762 166.428 67.6783 166.285C72.685 166.142 77.6782 166 82.712 166V164ZM52.606 164.571H19.5583V166.571H52.606V164.571ZM19.5583 164.571C16.2573 164.571 13.3219 164.679 10.407 164.786C7.48917 164.894 4.59192 165 1.33977 165V167C4.63365 167 7.56555 166.892 10.4804 166.785C13.3982 166.678 16.299 166.571 19.5583 166.571V164.571ZM268.5 1C268.5 1.56637 268.512 2.18959 268.531 2.83563L270.53 2.77926C270.512 2.14187 270.5 1.53961 270.5 1H268.5ZM268.531 2.83563C268.585 4.75422 268.688 6.84116 268.688 8.42857H270.688C270.688 6.80654 270.582 4.62747 270.53 2.77926L268.531 2.83563Z" fill="black"/>
</svg>
