<svg width="108" height="138" viewBox="0 0 108 138" fill="none" xmlns="http://www.w3.org/2000/svg">
<path d="M28.4693 27.7871L34.0975 27.9608C36.3822 27.9608 38.239 28 40.5 28C45.9601 28 49.0569 28.6559 54.5 28.6559C59.0037 28.6559 66.1015 29.0034 70.6566 29.0034C72.3452 29.0034 73.9526 28.6559 75.6476 28.6559H79.9049C79.9049 33.0748 80 38.1669 80 42.5C84.5491 45.2295 88.6882 48.0958 92.146 52.1823C93.3454 53.5998 94.5687 55.0022 95.6214 56.5362C96.5417 57.8772 97.4195 59.2333 98.3245 60.5908C99.6518 62.5818 100.992 65.1203 101.665 67.4064C103.025 72.0316 105.472 76.6066 105.961 81.4913C106.223 84.1129 105.797 86.7887 105.797 89.3978C105.797 90.5857 105.533 91.9072 105.314 93.0856C105.057 94.4637 104.46 96.0352 104.406 97.4298C104.368 98.4195 104.053 99.5787 103.711 100.519C103.231 101.839 102.988 103.251 102.485 104.593C101.443 107.373 100.31 109.841 98.4113 112.162C97.582 113.175 96.9429 114.386 96.0655 115.367C95.3927 116.119 95.038 117.221 94.3278 117.973C93.9341 118.39 93.7227 118.838 93.3817 119.276C93.0029 119.763 92.426 120.232 92.1074 120.754C91.6489 121.504 90.0542 122.442 89.3271 122.935C88.1779 123.715 87.2677 124.806 86.1703 125.629C85.0782 126.448 83.7381 127.173 82.7721 128.139C81.9812 128.93 80.869 129.514 80.0015 130.224C78.8415 131.173 77.6685 131.596 76.2558 132.145C75.8235 132.313 75.4873 132.721 75.0394 132.744C73.9966 132.796 72.8515 133.114 71.8054 133.275C70.6326 133.455 69.4391 133.9 68.2624 133.96C67.2065 134.014 66.1028 134.169 65.067 134.394C63.7777 134.675 62.4988 135.111 61.2344 135.34C60.6127 135.453 60.0627 135.724 59.4388 135.833C58.3682 136.019 57.179 135.871 56.0889 135.871C52.6112 135.871 48.7468 136.064 45.3635 135.176C42.3814 134.394 39.357 133.765 36.3275 133.226C33.5609 132.734 30.8482 132.206 28.1314 131.527C25.8234 130.95 24.1401 128.595 22.4839 127.096C20.6083 125.399 18.5598 124.069 16.8268 122.144C15.9661 121.187 14.8625 120.304 14.1816 119.19C13.8686 118.677 13.1554 118.134 12.7529 117.635C12.1013 116.829 11.5035 115.978 10.7835 115.232C9.32912 113.723 6.87778 111.476 6.56474 109.285C6.46783 108.606 5.95514 107.841 5.74417 107.161C5.52349 106.45 5.455 105.497 5.09736 104.854C4.29979 103.418 4.38999 101.481 3.70721 99.9784C3.06153 98.558 2.92567 96.7385 2.44255 95.2288C2.029 93.9364 1.70886 92.399 1.70886 91.039C1.70886 87.6739 1.74887 84.1611 2.79009 80.9218C3.36993 79.1178 3.8131 77.2735 4.41194 75.477C4.81013 74.2824 5.51597 73.1729 5.87932 71.992C6.4177 70.2422 7.45577 68.581 8.20589 66.914C8.70082 65.8142 9.22317 64.72 9.79878 63.6511C11.362 60.748 13.1331 58.2411 15.4752 55.899C17.1412 54.233 18.8374 52.5515 20.3987 50.8983C21.1438 50.1095 21.8143 49.4237 22.6963 48.8131C23.3962 48.3286 24 47.5 24.6464 46.9403C26 45.5 27.5 44 28.4693 42.7312V27.7871Z" fill="#D9D9D9"/>
<path d="M28.4693 27.7871L28.5156 26.2878C28.1099 26.2752 27.7165 26.4276 27.4251 26.7102C27.1338 26.9927 26.9693 27.3812 26.9693 27.7871H28.4693ZM34.0975 27.9608L34.0512 29.4601L34.0743 29.4608H34.0975V27.9608ZM79.9049 28.6559H81.4049C81.4049 27.8275 80.7334 27.1559 79.9049 27.1559V28.6559ZM28.4693 42.7312L29.6613 43.6418C29.8611 43.3803 29.9693 43.0603 29.9693 42.7312H28.4693ZM80 42.5H78.5C78.5 43.0269 78.7764 43.5152 79.2283 43.7863L80 42.5ZM24.6464 46.9403L25.6283 48.0742L25.6866 48.0237L25.7394 47.9675L24.6464 46.9403ZM22.6963 48.8131L23.5501 50.0464L23.5501 50.0464L22.6963 48.8131ZM20.3987 50.8983L19.3082 49.8684L19.3082 49.8684L20.3987 50.8983ZM9.79878 63.6511L11.1195 64.3622L11.1195 64.3622L9.79878 63.6511ZM8.20589 66.914L6.83801 66.2985L6.83801 66.2985L8.20589 66.914ZM5.87932 71.992L4.44565 71.5508L4.44565 71.5508L5.87932 71.992ZM4.41194 75.477L2.98891 75.0027L2.98891 75.0027L4.41194 75.477ZM2.79009 80.9218L1.36205 80.4628L1.36205 80.4628L2.79009 80.9218ZM2.44255 95.2288L3.87119 94.7716L3.87119 94.7716L2.44255 95.2288ZM3.70721 99.9784L2.34166 100.599L2.34166 100.599L3.70721 99.9784ZM5.09736 104.854L3.78612 105.582L3.78612 105.582L5.09736 104.854ZM5.74417 107.161L4.31157 107.606L4.31157 107.606L5.74417 107.161ZM6.56474 109.285L5.07982 109.497L6.56474 109.285ZM10.7835 115.232L11.8632 114.19L11.8632 114.19L10.7835 115.232ZM12.7529 117.635L13.9198 116.693L13.9198 116.693L12.7529 117.635ZM14.1816 119.19L15.4615 118.407L15.4615 118.407L14.1816 119.19ZM16.8268 122.144L17.9417 121.14L17.9417 121.14L16.8268 122.144ZM22.4839 127.096L23.4903 125.984L23.4903 125.984L22.4839 127.096ZM28.1314 131.527L28.4952 130.072L28.4952 130.072L28.1314 131.527ZM36.3275 133.226L36.5901 131.749L36.5901 131.749L36.3275 133.226ZM45.3635 135.176L45.7441 133.725L45.7441 133.725L45.3635 135.176ZM59.4388 135.833L59.1818 134.355L59.1818 134.355L59.4388 135.833ZM61.2344 135.34L60.9661 133.865L60.9661 133.865L61.2344 135.34ZM65.067 134.394L65.3856 135.86L65.3856 135.86L65.067 134.394ZM68.2624 133.96L68.3392 135.458L68.3392 135.458L68.2624 133.96ZM71.8054 133.275L71.5773 131.792L71.5773 131.792L71.8054 133.275ZM75.0394 132.744L75.1143 134.242L75.1143 134.242L75.0394 132.744ZM76.2558 132.145L75.7121 130.747L75.7121 130.747L76.2558 132.145ZM80.0015 130.224L79.0516 129.063L79.0516 129.063L80.0015 130.224ZM89.3271 122.935L88.4848 121.694L88.4848 121.694L89.3271 122.935ZM92.1074 120.754L90.8275 119.971L90.8275 119.971L92.1074 120.754ZM93.3817 119.276L94.5657 120.197L94.5657 120.197L93.3817 119.276ZM94.3278 117.973L93.2373 116.943L93.2372 116.943L94.3278 117.973ZM96.0655 115.367L94.9476 114.366L94.9476 114.366L96.0655 115.367ZM98.4113 112.162L97.2504 111.212L97.2504 111.212L98.4113 112.162ZM102.485 104.593L103.89 105.12L103.89 105.12L102.485 104.593ZM103.711 100.519L105.121 101.032L105.121 101.032L103.711 100.519ZM104.406 97.4298L102.907 97.3722L102.907 97.3722L104.406 97.4298ZM105.314 93.0856L106.789 93.36L106.789 93.36L105.314 93.0856ZM105.961 81.4913L107.453 81.3421L107.453 81.3421L105.961 81.4913ZM101.665 67.4064L100.226 67.8296L100.226 67.8297L101.665 67.4064ZM98.3245 60.5908L97.0764 61.4228L97.0764 61.4228L98.3245 60.5908ZM95.6214 56.5362L94.3846 57.3849L94.3846 57.385L95.6214 56.5362ZM92.146 52.1823L93.2911 51.2134L93.2911 51.2134L92.146 52.1823ZM54.6329 11.2708L56.1213 11.4568L54.6329 11.2708ZM54.6329 7.00002L53.1594 7.28069L53.1594 7.28069L54.6329 7.00002ZM54.5 4.5L55.9869 4.69755L54.5 4.5ZM56.1329 1.80369C56.1329 0.975265 55.4613 0.303692 54.6329 0.303692C53.8044 0.303692 53.1329 0.975265 53.1329 1.80369H56.1329ZM28.423 29.2863L34.0512 29.4601L34.1438 26.4615L28.5156 26.2878L28.423 29.2863ZM34.0975 29.4608C35.2318 29.4608 36.2604 29.4706 37.2934 29.4804C38.3251 29.4901 39.3614 29.5 40.5 29.5V26.5C39.3777 26.5 38.355 26.4903 37.3219 26.4805C36.2901 26.4707 35.248 26.4608 34.0975 26.4608V29.4608ZM40.5 29.5C43.1671 29.5 45.2557 29.6597 47.3916 29.8236C49.5296 29.9876 51.7153 30.1559 54.5 30.1559V27.1559C51.8415 27.1559 49.7574 26.9963 47.6211 26.8324C45.4829 26.6683 43.293 26.5 40.5 26.5V29.5ZM54.5 30.1559C56.7245 30.1559 59.5995 30.2419 62.5142 30.329C65.4134 30.4157 68.3518 30.5034 70.6566 30.5034V27.5034C68.4064 27.5034 65.5183 27.4175 62.6039 27.3303C59.705 27.2437 56.7793 27.1559 54.5 27.1559V30.1559ZM70.6566 30.5034C71.5925 30.5034 72.4942 30.407 73.3068 30.3214C74.1434 30.2333 74.8915 30.1559 75.6476 30.1559V27.1559C74.7086 27.1559 73.8056 27.2523 72.9925 27.3379C72.1555 27.4261 71.4093 27.5034 70.6566 27.5034V30.5034ZM75.6476 30.1559C75.6506 30.1559 75.6536 30.1559 75.6566 30.1559C75.6596 30.1559 75.6626 30.1559 75.6656 30.1559C75.6686 30.1559 75.6716 30.1559 75.6746 30.1559C75.6776 30.1559 75.6806 30.1559 75.6836 30.1559C75.6866 30.1559 75.6896 30.1559 75.6926 30.1559C75.6956 30.1559 75.6986 30.1559 75.7015 30.1559C75.7045 30.1559 75.7075 30.1559 75.7105 30.1559C75.7135 30.1559 75.7165 30.1559 75.7195 30.1559C75.7225 30.1559 75.7254 30.1559 75.7284 30.1559C75.7314 30.1559 75.7344 30.1559 75.7374 30.1559C75.7403 30.1559 75.7433 30.1559 75.7463 30.1559C75.7493 30.1559 75.7523 30.1559 75.7552 30.1559C75.7582 30.1559 75.7612 30.1559 75.7641 30.1559C75.7671 30.1559 75.7701 30.1559 75.7731 30.1559C75.776 30.1559 75.779 30.1559 75.782 30.1559C75.7849 30.1559 75.7879 30.1559 75.7909 30.1559C75.7938 30.1559 75.7968 30.1559 75.7998 30.1559C75.8027 30.1559 75.8057 30.1559 75.8087 30.1559C75.8116 30.1559 75.8146 30.1559 75.8175 30.1559C75.8205 30.1559 75.8235 30.1559 75.8264 30.1559C75.8294 30.1559 75.8323 30.1559 75.8353 30.1559C75.8382 30.1559 75.8412 30.1559 75.8441 30.1559C75.8471 30.1559 75.85 30.1559 75.853 30.1559C75.8559 30.1559 75.8589 30.1559 75.8618 30.1559C75.8648 30.1559 75.8677 30.1559 75.8707 30.1559C75.8736 30.1559 75.8766 30.1559 75.8795 30.1559C75.8825 30.1559 75.8854 30.1559 75.8883 30.1559C75.8913 30.1559 75.8942 30.1559 75.8972 30.1559C75.9001 30.1559 75.903 30.1559 75.906 30.1559C75.9089 30.1559 75.9119 30.1559 75.9148 30.1559C75.9177 30.1559 75.9207 30.1559 75.9236 30.1559C75.9265 30.1559 75.9295 30.1559 75.9324 30.1559C75.9353 30.1559 75.9382 30.1559 75.9412 30.1559C75.9441 30.1559 75.947 30.1559 75.95 30.1559C75.9529 30.1559 75.9558 30.1559 75.9587 30.1559C75.9617 30.1559 75.9646 30.1559 75.9675 30.1559C75.9704 30.1559 75.9733 30.1559 75.9763 30.1559C75.9792 30.1559 75.9821 30.1559 75.985 30.1559C75.9879 30.1559 75.9909 30.1559 75.9938 30.1559C75.9967 30.1559 75.9996 30.1559 76.0025 30.1559C76.0054 30.1559 76.0083 30.1559 76.0112 30.1559C76.0142 30.1559 76.0171 30.1559 76.02 30.1559C76.0229 30.1559 76.0258 30.1559 76.0287 30.1559C76.0316 30.1559 76.0345 30.1559 76.0374 30.1559C76.0403 30.1559 76.0432 30.1559 76.0461 30.1559C76.049 30.1559 76.0519 30.1559 76.0548 30.1559C76.0577 30.1559 76.0606 30.1559 76.0635 30.1559C76.0664 30.1559 76.0693 30.1559 76.0722 30.1559C76.0751 30.1559 76.078 30.1559 76.0809 30.1559C76.0838 30.1559 76.0867 30.1559 76.0896 30.1559C76.0925 30.1559 76.0954 30.1559 76.0983 30.1559C76.1012 30.1559 76.1041 30.1559 76.1069 30.1559C76.1098 30.1559 76.1127 30.1559 76.1156 30.1559C76.1185 30.1559 76.1214 30.1559 76.1243 30.1559C76.1272 30.1559 76.13 30.1559 76.1329 30.1559C76.1358 30.1559 76.1387 30.1559 76.1416 30.1559C76.1445 30.1559 76.1473 30.1559 76.1502 30.1559C76.1531 30.1559 76.156 30.1559 76.1588 30.1559C76.1617 30.1559 76.1646 30.1559 76.1675 30.1559C76.1704 30.1559 76.1732 30.1559 76.1761 30.1559C76.179 30.1559 76.1818 30.1559 76.1847 30.1559C76.1876 30.1559 76.1905 30.1559 76.1933 30.1559C76.1962 30.1559 76.1991 30.1559 76.2019 30.1559C76.2048 30.1559 76.2077 30.1559 76.2105 30.1559C76.2134 30.1559 76.2163 30.1559 76.2191 30.1559C76.222 30.1559 76.2249 30.1559 76.2277 30.1559C76.2306 30.1559 76.2334 30.1559 76.2363 30.1559C76.2392 30.1559 76.242 30.1559 76.2449 30.1559C76.2477 30.1559 76.2506 30.1559 76.2535 30.1559C76.2563 30.1559 76.2592 30.1559 76.262 30.1559C76.2649 30.1559 76.2677 30.1559 76.2706 30.1559C76.2734 30.1559 76.2763 30.1559 76.2791 30.1559C76.282 30.1559 76.2848 30.1559 76.2877 30.1559C76.2905 30.1559 76.2934 30.1559 76.2962 30.1559C76.2991 30.1559 76.3019 30.1559 76.3048 30.1559C76.3076 30.1559 76.3105 30.1559 76.3133 30.1559C76.3162 30.1559 76.319 30.1559 76.3218 30.1559C76.3247 30.1559 76.3275 30.1559 76.3304 30.1559C76.3332 30.1559 76.336 30.1559 76.3389 30.1559C76.3417 30.1559 76.3446 30.1559 76.3474 30.1559C76.3502 30.1559 76.3531 30.1559 76.3559 30.1559C76.3587 30.1559 76.3616 30.1559 76.3644 30.1559C76.3672 30.1559 76.3701 30.1559 76.3729 30.1559C76.3757 30.1559 76.3786 30.1559 76.3814 30.1559C76.3842 30.1559 76.3871 30.1559 76.3899 30.1559C76.3927 30.1559 76.3955 30.1559 76.3984 30.1559C76.4012 30.1559 76.404 30.1559 76.4069 30.1559C76.4097 30.1559 76.4125 30.1559 76.4153 30.1559C76.4182 30.1559 76.421 30.1559 76.4238 30.1559C76.4266 30.1559 76.4294 30.1559 76.4323 30.1559C76.4351 30.1559 76.4379 30.1559 76.4407 30.1559C76.4435 30.1559 76.4464 30.1559 76.4492 30.1559C76.452 30.1559 76.4548 30.1559 76.4576 30.1559C76.4604 30.1559 76.4633 30.1559 76.4661 30.1559C76.4689 30.1559 76.4717 30.1559 76.4745 30.1559C76.4773 30.1559 76.4801 30.1559 76.4829 30.1559C76.4857 30.1559 76.4886 30.1559 76.4914 30.1559C76.4942 30.1559 76.497 30.1559 76.4998 30.1559C76.5026 30.1559 76.5054 30.1559 76.5082 30.1559C76.511 30.1559 76.5138 30.1559 76.5166 30.1559C76.5194 30.1559 76.5222 30.1559 76.525 30.1559C76.5278 30.1559 76.5306 30.1559 76.5334 30.1559C76.5362 30.1559 76.539 30.1559 76.5418 30.1559C76.5446 30.1559 76.5474 30.1559 76.5502 30.1559C76.553 30.1559 76.5558 30.1559 76.5586 30.1559C76.5614 30.1559 76.5642 30.1559 76.567 30.1559C76.5698 30.1559 76.5726 30.1559 76.5754 30.1559C76.5782 30.1559 76.581 30.1559 76.5838 30.1559C76.5866 30.1559 76.5894 30.1559 76.5922 30.1559C76.595 30.1559 76.5977 30.1559 76.6005 30.1559C76.6033 30.1559 76.6061 30.1559 76.6089 30.1559C76.6117 30.1559 76.6145 30.1559 76.6173 30.1559C76.62 30.1559 76.6228 30.1559 76.6256 30.1559C76.6284 30.1559 76.6312 30.1559 76.634 30.1559C76.6368 30.1559 76.6395 30.1559 76.6423 30.1559C76.6451 30.1559 76.6479 30.1559 76.6507 30.1559C76.6534 30.1559 76.6562 30.1559 76.659 30.1559C76.6618 30.1559 76.6646 30.1559 76.6673 30.1559C76.6701 30.1559 76.6729 30.1559 76.6757 30.1559C76.6785 30.1559 76.6812 30.1559 76.684 30.1559C76.6868 30.1559 76.6896 30.1559 76.6923 30.1559C76.6951 30.1559 76.6979 30.1559 76.7006 30.1559C76.7034 30.1559 76.7062 30.1559 76.709 30.1559C76.7117 30.1559 76.7145 30.1559 76.7173 30.1559C76.72 30.1559 76.7228 30.1559 76.7256 30.1559C76.7283 30.1559 76.7311 30.1559 76.7339 30.1559C76.7367 30.1559 76.7394 30.1559 76.7422 30.1559C76.745 30.1559 76.7477 30.1559 76.7505 30.1559C76.7532 30.1559 76.756 30.1559 76.7588 30.1559C76.7615 30.1559 76.7643 30.1559 76.7671 30.1559C76.7698 30.1559 76.7726 30.1559 76.7753 30.1559C76.7781 30.1559 76.7809 30.1559 76.7836 30.1559C76.7864 30.1559 76.7891 30.1559 76.7919 30.1559C76.7947 30.1559 76.7974 30.1559 76.8002 30.1559C76.8029 30.1559 76.8057 30.1559 76.8084 30.1559C76.8112 30.1559 76.814 30.1559 76.8167 30.1559C76.8195 30.1559 76.8222 30.1559 76.825 30.1559C76.8277 30.1559 76.8305 30.1559 76.8332 30.1559C76.836 30.1559 76.8387 30.1559 76.8415 30.1559C76.8442 30.1559 76.847 30.1559 76.8497 30.1559C76.8525 30.1559 76.8552 30.1559 76.858 30.1559C76.8607 30.1559 76.8635 30.1559 76.8662 30.1559C76.869 30.1559 76.8717 30.1559 76.8745 30.1559C76.8772 30.1559 76.88 30.1559 76.8827 30.1559C76.8855 30.1559 76.8882 30.1559 76.8909 30.1559C76.8937 30.1559 76.8964 30.1559 76.8992 30.1559C76.9019 30.1559 76.9047 30.1559 76.9074 30.1559C76.9101 30.1559 76.9129 30.1559 76.9156 30.1559C76.9184 30.1559 76.9211 30.1559 76.9238 30.1559C76.9266 30.1559 76.9293 30.1559 76.9321 30.1559C76.9348 30.1559 76.9375 30.1559 76.9403 30.1559C76.943 30.1559 76.9457 30.1559 76.9485 30.1559C76.9512 30.1559 76.954 30.1559 76.9567 30.1559C76.9594 30.1559 76.9622 30.1559 76.9649 30.1559C76.9676 30.1559 76.9704 30.1559 76.9731 30.1559C76.9758 30.1559 76.9786 30.1559 76.9813 30.1559C76.984 30.1559 76.9868 30.1559 76.9895 30.1559C76.9922 30.1559 76.9949 30.1559 76.9977 30.1559C77.0004 30.1559 77.0031 30.1559 77.0059 30.1559C77.0086 30.1559 77.0113 30.1559 77.014 30.1559C77.0168 30.1559 77.0195 30.1559 77.0222 30.1559C77.025 30.1559 77.0277 30.1559 77.0304 30.1559C77.0331 30.1559 77.0359 30.1559 77.0386 30.1559C77.0413 30.1559 77.044 30.1559 77.0468 30.1559C77.0495 30.1559 77.0522 30.1559 77.0549 30.1559C77.0577 30.1559 77.0604 30.1559 77.0631 30.1559C77.0658 30.1559 77.0685 30.1559 77.0713 30.1559C77.074 30.1559 77.0767 30.1559 77.0794 30.1559C77.0821 30.1559 77.0849 30.1559 77.0876 30.1559C77.0903 30.1559 77.093 30.1559 77.0957 30.1559C77.0985 30.1559 77.1012 30.1559 77.1039 30.1559C77.1066 30.1559 77.1093 30.1559 77.112 30.1559C77.1148 30.1559 77.1175 30.1559 77.1202 30.1559C77.1229 30.1559 77.1256 30.1559 77.1283 30.1559C77.1311 30.1559 77.1338 30.1559 77.1365 30.1559C77.1392 30.1559 77.1419 30.1559 77.1446 30.1559C77.1473 30.1559 77.15 30.1559 77.1528 30.1559C77.1555 30.1559 77.1582 30.1559 77.1609 30.1559C77.1636 30.1559 77.1663 30.1559 77.169 30.1559C77.1717 30.1559 77.1744 30.1559 77.1772 30.1559C77.1799 30.1559 77.1826 30.1559 77.1853 30.1559C77.188 30.1559 77.1907 30.1559 77.1934 30.1559C77.1961 30.1559 77.1988 30.1559 77.2015 30.1559C77.2042 30.1559 77.2069 30.1559 77.2097 30.1559C77.2124 30.1559 77.2151 30.1559 77.2178 30.1559C77.2205 30.1559 77.2232 30.1559 77.2259 30.1559C77.2286 30.1559 77.2313 30.1559 77.234 30.1559C77.2367 30.1559 77.2394 30.1559 77.2421 30.1559C77.2448 30.1559 77.2475 30.1559 77.2502 30.1559C77.2529 30.1559 77.2556 30.1559 77.2583 30.1559C77.261 30.1559 77.2637 30.1559 77.2664 30.1559C77.2691 30.1559 77.2718 30.1559 77.2745 30.1559C77.2772 30.1559 77.2799 30.1559 77.2826 30.1559C77.2853 30.1559 77.288 30.1559 77.2907 30.1559C77.2934 30.1559 77.2961 30.1559 77.2988 30.1559C77.3015 30.1559 77.3042 30.1559 77.3069 30.1559C77.3096 30.1559 77.3123 30.1559 77.315 30.1559C77.3177 30.1559 77.3204 30.1559 77.3231 30.1559C77.3258 30.1559 77.3285 30.1559 77.3312 30.1559C77.3339 30.1559 77.3366 30.1559 77.3393 30.1559C77.342 30.1559 77.3447 30.1559 77.3474 30.1559C77.3501 30.1559 77.3527 30.1559 77.3554 30.1559C77.3581 30.1559 77.3608 30.1559 77.3635 30.1559C77.3662 30.1559 77.3689 30.1559 77.3716 30.1559C77.3743 30.1559 77.377 30.1559 77.3797 30.1559C77.3824 30.1559 77.3851 30.1559 77.3878 30.1559C77.3904 30.1559 77.3931 30.1559 77.3958 30.1559C77.3985 30.1559 77.4012 30.1559 77.4039 30.1559C77.4066 30.1559 77.4093 30.1559 77.412 30.1559C77.4147 30.1559 77.4173 30.1559 77.42 30.1559C77.4227 30.1559 77.4254 30.1559 77.4281 30.1559C77.4308 30.1559 77.4335 30.1559 77.4362 30.1559C77.4389 30.1559 77.4415 30.1559 77.4442 30.1559C77.4469 30.1559 77.4496 30.1559 77.4523 30.1559C77.455 30.1559 77.4577 30.1559 77.4603 30.1559C77.463 30.1559 77.4657 30.1559 77.4684 30.1559C77.4711 30.1559 77.4738 30.1559 77.4765 30.1559C77.4791 30.1559 77.4818 30.1559 77.4845 30.1559C77.4872 30.1559 77.4899 30.1559 77.4926 30.1559C77.4953 30.1559 77.4979 30.1559 77.5006 30.1559C77.5033 30.1559 77.506 30.1559 77.5087 30.1559C77.5114 30.1559 77.514 30.1559 77.5167 30.1559C77.5194 30.1559 77.5221 30.1559 77.5248 30.1559C77.5275 30.1559 77.5301 30.1559 77.5328 30.1559C77.5355 30.1559 77.5382 30.1559 77.5409 30.1559C77.5435 30.1559 77.5462 30.1559 77.5489 30.1559C77.5516 30.1559 77.5543 30.1559 77.557 30.1559C77.5596 30.1559 77.5623 30.1559 77.565 30.1559C77.5677 30.1559 77.5704 30.1559 77.573 30.1559C77.5757 30.1559 77.5784 30.1559 77.5811 30.1559C77.5838 30.1559 77.5864 30.1559 77.5891 30.1559C77.5918 30.1559 77.5945 30.1559 77.5972 30.1559C77.5998 30.1559 77.6025 30.1559 77.6052 30.1559C77.6079 30.1559 77.6105 30.1559 77.6132 30.1559C77.6159 30.1559 77.6186 30.1559 77.6213 30.1559C77.6239 30.1559 77.6266 30.1559 77.6293 30.1559C77.632 30.1559 77.6346 30.1559 77.6373 30.1559C77.64 30.1559 77.6427 30.1559 77.6454 30.1559C77.648 30.1559 77.6507 30.1559 77.6534 30.1559C77.6561 30.1559 77.6587 30.1559 77.6614 30.1559C77.6641 30.1559 77.6668 30.1559 77.6694 30.1559C77.6721 30.1559 77.6748 30.1559 77.6775 30.1559C77.6801 30.1559 77.6828 30.1559 77.6855 30.1559C77.6882 30.1559 77.6909 30.1559 77.6935 30.1559C77.6962 30.1559 77.6989 30.1559 77.7016 30.1559C77.7042 30.1559 77.7069 30.1559 77.7096 30.1559C77.7123 30.1559 77.7149 30.1559 77.7176 30.1559C77.7203 30.1559 77.723 30.1559 77.7256 30.1559C77.7283 30.1559 77.731 30.1559 77.7336 30.1559C77.7363 30.1559 77.739 30.1559 77.7417 30.1559C77.7443 30.1559 77.747 30.1559 77.7497 30.1559C77.7524 30.1559 77.755 30.1559 77.7577 30.1559C77.7604 30.1559 77.7631 30.1559 77.7657 30.1559C77.7684 30.1559 77.7711 30.1559 77.7738 30.1559C77.7764 30.1559 77.7791 30.1559 77.7818 30.1559C77.7845 30.1559 77.7871 30.1559 77.7898 30.1559C77.7925 30.1559 77.7951 30.1559 77.7978 30.1559C77.8005 30.1559 77.8032 30.1559 77.8058 30.1559C77.8085 30.1559 77.8112 30.1559 77.8139 30.1559C77.8165 30.1559 77.8192 30.1559 77.8219 30.1559C77.8245 30.1559 77.8272 30.1559 77.8299 30.1559C77.8326 30.1559 77.8352 30.1559 77.8379 30.1559C77.8406 30.1559 77.8433 30.1559 77.8459 30.1559C77.8486 30.1559 77.8513 30.1559 77.8539 30.1559C77.8566 30.1559 77.8593 30.1559 77.862 30.1559C77.8646 30.1559 77.8673 30.1559 77.87 30.1559C77.8726 30.1559 77.8753 30.1559 77.878 30.1559C77.8807 30.1559 77.8833 30.1559 77.886 30.1559C77.8887 30.1559 77.8913 30.1559 77.894 30.1559C77.8967 30.1559 77.8994 30.1559 77.902 30.1559C77.9047 30.1559 77.9074 30.1559 77.9101 30.1559C77.9127 30.1559 77.9154 30.1559 77.9181 30.1559C77.9207 30.1559 77.9234 30.1559 77.9261 30.1559C77.9288 30.1559 77.9314 30.1559 77.9341 30.1559C77.9368 30.1559 77.9394 30.1559 77.9421 30.1559C77.9448 30.1559 77.9475 30.1559 77.9501 30.1559C77.9528 30.1559 77.9555 30.1559 77.9582 30.1559C77.9608 30.1559 77.9635 30.1559 77.9662 30.1559C77.9688 30.1559 77.9715 30.1559 77.9742 30.1559C77.9769 30.1559 77.9795 30.1559 77.9822 30.1559C77.9849 30.1559 77.9875 30.1559 77.9902 30.1559C77.9929 30.1559 77.9956 30.1559 77.9982 30.1559C78.0009 30.1559 78.0036 30.1559 78.0063 30.1559C78.0089 30.1559 78.0116 30.1559 78.0143 30.1559C78.0169 30.1559 78.0196 30.1559 78.0223 30.1559C78.025 30.1559 78.0276 30.1559 78.0303 30.1559C78.033 30.1559 78.0357 30.1559 78.0383 30.1559C78.041 30.1559 78.0437 30.1559 78.0463 30.1559C78.049 30.1559 78.0517 30.1559 78.0544 30.1559C78.057 30.1559 78.0597 30.1559 78.0624 30.1559C78.0651 30.1559 78.0677 30.1559 78.0704 30.1559C78.0731 30.1559 78.0758 30.1559 78.0784 30.1559C78.0811 30.1559 78.0838 30.1559 78.0865 30.1559C78.0891 30.1559 78.0918 30.1559 78.0945 30.1559C78.0972 30.1559 78.0998 30.1559 78.1025 30.1559C78.1052 30.1559 78.1079 30.1559 78.1105 30.1559C78.1132 30.1559 78.1159 30.1559 78.1186 30.1559C78.1212 30.1559 78.1239 30.1559 78.1266 30.1559C78.1293 30.1559 78.1319 30.1559 78.1346 30.1559C78.1373 30.1559 78.14 30.1559 78.1426 30.1559C78.1453 30.1559 78.148 30.1559 78.1507 30.1559C78.1533 30.1559 78.156 30.1559 78.1587 30.1559C78.1614 30.1559 78.164 30.1559 78.1667 30.1559C78.1694 30.1559 78.1721 30.1559 78.1747 30.1559C78.1774 30.1559 78.1801 30.1559 78.1828 30.1559C78.1855 30.1559 78.1881 30.1559 78.1908 30.1559C78.1935 30.1559 78.1962 30.1559 78.1988 30.1559C78.2015 30.1559 78.2042 30.1559 78.2069 30.1559C78.2096 30.1559 78.2122 30.1559 78.2149 30.1559C78.2176 30.1559 78.2203 30.1559 78.2229 30.1559C78.2256 30.1559 78.2283 30.1559 78.231 30.1559C78.2337 30.1559 78.2363 30.1559 78.239 30.1559C78.2417 30.1559 78.2444 30.1559 78.2471 30.1559C78.2497 30.1559 78.2524 30.1559 78.2551 30.1559C78.2578 30.1559 78.2605 30.1559 78.2631 30.1559C78.2658 30.1559 78.2685 30.1559 78.2712 30.1559C78.2739 30.1559 78.2765 30.1559 78.2792 30.1559C78.2819 30.1559 78.2846 30.1559 78.2873 30.1559C78.29 30.1559 78.2926 30.1559 78.2953 30.1559C78.298 30.1559 78.3007 30.1559 78.3034 30.1559C78.3061 30.1559 78.3087 30.1559 78.3114 30.1559C78.3141 30.1559 78.3168 30.1559 78.3195 30.1559C78.3222 30.1559 78.3248 30.1559 78.3275 30.1559C78.3302 30.1559 78.3329 30.1559 78.3356 30.1559C78.3383 30.1559 78.3409 30.1559 78.3436 30.1559C78.3463 30.1559 78.349 30.1559 78.3517 30.1559C78.3544 30.1559 78.3571 30.1559 78.3597 30.1559C78.3624 30.1559 78.3651 30.1559 78.3678 30.1559C78.3705 30.1559 78.3732 30.1559 78.3759 30.1559C78.3785 30.1559 78.3812 30.1559 78.3839 30.1559C78.3866 30.1559 78.3893 30.1559 78.392 30.1559C78.3947 30.1559 78.3974 30.1559 78.4001 30.1559C78.4027 30.1559 78.4054 30.1559 78.4081 30.1559C78.4108 30.1559 78.4135 30.1559 78.4162 30.1559C78.4189 30.1559 78.4216 30.1559 78.4243 30.1559C78.4269 30.1559 78.4296 30.1559 78.4323 30.1559C78.435 30.1559 78.4377 30.1559 78.4404 30.1559C78.4431 30.1559 78.4458 30.1559 78.4485 30.1559C78.4512 30.1559 78.4539 30.1559 78.4566 30.1559C78.4592 30.1559 78.4619 30.1559 78.4646 30.1559C78.4673 30.1559 78.47 30.1559 78.4727 30.1559C78.4754 30.1559 78.4781 30.1559 78.4808 30.1559C78.4835 30.1559 78.4862 30.1559 78.4889 30.1559C78.4916 30.1559 78.4943 30.1559 78.497 30.1559C78.4997 30.1559 78.5024 30.1559 78.5051 30.1559C78.5078 30.1559 78.5105 30.1559 78.5131 30.1559C78.5158 30.1559 78.5185 30.1559 78.5212 30.1559C78.5239 30.1559 78.5266 30.1559 78.5293 30.1559C78.532 30.1559 78.5347 30.1559 78.5374 30.1559C78.5401 30.1559 78.5428 30.1559 78.5455 30.1559C78.5482 30.1559 78.5509 30.1559 78.5536 30.1559C78.5563 30.1559 78.559 30.1559 78.5617 30.1559C78.5644 30.1559 78.5671 30.1559 78.5698 30.1559C78.5725 30.1559 78.5752 30.1559 78.578 30.1559C78.5807 30.1559 78.5834 30.1559 78.5861 30.1559C78.5888 30.1559 78.5915 30.1559 78.5942 30.1559C78.5969 30.1559 78.5996 30.1559 78.6023 30.1559C78.605 30.1559 78.6077 30.1559 78.6104 30.1559C78.6131 30.1559 78.6158 30.1559 78.6185 30.1559C78.6212 30.1559 78.6239 30.1559 78.6266 30.1559C78.6294 30.1559 78.6321 30.1559 78.6348 30.1559C78.6375 30.1559 78.6402 30.1559 78.6429 30.1559C78.6456 30.1559 78.6483 30.1559 78.651 30.1559C78.6537 30.1559 78.6564 30.1559 78.6592 30.1559C78.6619 30.1559 78.6646 30.1559 78.6673 30.1559C78.67 30.1559 78.6727 30.1559 78.6754 30.1559C78.6781 30.1559 78.6809 30.1559 78.6836 30.1559C78.6863 30.1559 78.689 30.1559 78.6917 30.1559C78.6944 30.1559 78.6971 30.1559 78.6999 30.1559C78.7026 30.1559 78.7053 30.1559 78.708 30.1559C78.7107 30.1559 78.7134 30.1559 78.7161 30.1559C78.7189 30.1559 78.7216 30.1559 78.7243 30.1559C78.727 30.1559 78.7297 30.1559 78.7325 30.1559C78.7352 30.1559 78.7379 30.1559 78.7406 30.1559C78.7433 30.1559 78.7461 30.1559 78.7488 30.1559C78.7515 30.1559 78.7542 30.1559 78.7569 30.1559C78.7597 30.1559 78.7624 30.1559 78.7651 30.1559C78.7678 30.1559 78.7705 30.1559 78.7733 30.1559C78.776 30.1559 78.7787 30.1559 78.7814 30.1559C78.7842 30.1559 78.7869 30.1559 78.7896 30.1559C78.7923 30.1559 78.7951 30.1559 78.7978 30.1559C78.8005 30.1559 78.8033 30.1559 78.806 30.1559C78.8087 30.1559 78.8114 30.1559 78.8142 30.1559C78.8169 30.1559 78.8196 30.1559 78.8223 30.1559C78.8251 30.1559 78.8278 30.1559 78.8305 30.1559C78.8333 30.1559 78.836 30.1559 78.8387 30.1559C78.8415 30.1559 78.8442 30.1559 78.8469 30.1559C78.8497 30.1559 78.8524 30.1559 78.8551 30.1559C78.8579 30.1559 78.8606 30.1559 78.8633 30.1559C78.8661 30.1559 78.8688 30.1559 78.8715 30.1559C78.8743 30.1559 78.877 30.1559 78.8797 30.1559C78.8825 30.1559 78.8852 30.1559 78.888 30.1559C78.8907 30.1559 78.8934 30.1559 78.8962 30.1559C78.8989 30.1559 78.9016 30.1559 78.9044 30.1559C78.9071 30.1559 78.9099 30.1559 78.9126 30.1559C78.9154 30.1559 78.9181 30.1559 78.9208 30.1559C78.9236 30.1559 78.9263 30.1559 78.9291 30.1559C78.9318 30.1559 78.9346 30.1559 78.9373 30.1559C78.94 30.1559 78.9428 30.1559 78.9455 30.1559C78.9483 30.1559 78.951 30.1559 78.9538 30.1559C78.9565 30.1559 78.9593 30.1559 78.962 30.1559C78.9648 30.1559 78.9675 30.1559 78.9703 30.1559C78.973 30.1559 78.9758 30.1559 78.9785 30.1559C78.9813 30.1559 78.984 30.1559 78.9868 30.1559C78.9895 30.1559 78.9923 30.1559 78.995 30.1559C78.9978 30.1559 79.0005 30.1559 79.0033 30.1559C79.006 30.1559 79.0088 30.1559 79.0115 30.1559C79.0143 30.1559 79.0171 30.1559 79.0198 30.1559C79.0226 30.1559 79.0253 30.1559 79.0281 30.1559C79.0308 30.1559 79.0336 30.1559 79.0364 30.1559C79.0391 30.1559 79.0419 30.1559 79.0446 30.1559C79.0474 30.1559 79.0502 30.1559 79.0529 30.1559C79.0557 30.1559 79.0584 30.1559 79.0612 30.1559C79.064 30.1559 79.0667 30.1559 79.0695 30.1559C79.0723 30.1559 79.075 30.1559 79.0778 30.1559C79.0806 30.1559 79.0833 30.1559 79.0861 30.1559C79.0889 30.1559 79.0916 30.1559 79.0944 30.1559C79.0972 30.1559 79.0999 30.1559 79.1027 30.1559C79.1055 30.1559 79.1082 30.1559 79.111 30.1559C79.1138 30.1559 79.1165 30.1559 79.1193 30.1559C79.1221 30.1559 79.1249 30.1559 79.1276 30.1559C79.1304 30.1559 79.1332 30.1559 79.136 30.1559C79.1387 30.1559 79.1415 30.1559 79.1443 30.1559C79.1471 30.1559 79.1498 30.1559 79.1526 30.1559C79.1554 30.1559 79.1582 30.1559 79.1609 30.1559C79.1637 30.1559 79.1665 30.1559 79.1693 30.1559C79.1721 30.1559 79.1748 30.1559 79.1776 30.1559C79.1804 30.1559 79.1832 30.1559 79.186 30.1559C79.1888 30.1559 79.1915 30.1559 79.1943 30.1559C79.1971 30.1559 79.1999 30.1559 79.2027 30.1559C79.2055 30.1559 79.2083 30.1559 79.211 30.1559C79.2138 30.1559 79.2166 30.1559 79.2194 30.1559C79.2222 30.1559 79.225 30.1559 79.2278 30.1559C79.2306 30.1559 79.2334 30.1559 79.2361 30.1559C79.2389 30.1559 79.2417 30.1559 79.2445 30.1559C79.2473 30.1559 79.2501 30.1559 79.2529 30.1559C79.2557 30.1559 79.2585 30.1559 79.2613 30.1559C79.2641 30.1559 79.2669 30.1559 79.2697 30.1559C79.2725 30.1559 79.2753 30.1559 79.2781 30.1559C79.2809 30.1559 79.2837 30.1559 79.2865 30.1559C79.2893 30.1559 79.2921 30.1559 79.2949 30.1559C79.2977 30.1559 79.3005 30.1559 79.3033 30.1559C79.3061 30.1559 79.3089 30.1559 79.3117 30.1559C79.3145 30.1559 79.3173 30.1559 79.3201 30.1559C79.3229 30.1559 79.3257 30.1559 79.3285 30.1559C79.3314 30.1559 79.3342 30.1559 79.337 30.1559C79.3398 30.1559 79.3426 30.1559 79.3454 30.1559C79.3482 30.1559 79.351 30.1559 79.3538 30.1559C79.3567 30.1559 79.3595 30.1559 79.3623 30.1559C79.3651 30.1559 79.3679 30.1559 79.3707 30.1559C79.3735 30.1559 79.3764 30.1559 79.3792 30.1559C79.382 30.1559 79.3848 30.1559 79.3876 30.1559C79.3905 30.1559 79.3933 30.1559 79.3961 30.1559C79.3989 30.1559 79.4017 30.1559 79.4046 30.1559C79.4074 30.1559 79.4102 30.1559 79.413 30.1559C79.4159 30.1559 79.4187 30.1559 79.4215 30.1559C79.4243 30.1559 79.4272 30.1559 79.43 30.1559C79.4328 30.1559 79.4356 30.1559 79.4385 30.1559C79.4413 30.1559 79.4441 30.1559 79.447 30.1559C79.4498 30.1559 79.4526 30.1559 79.4555 30.1559C79.4583 30.1559 79.4611 30.1559 79.464 30.1559C79.4668 30.1559 79.4696 30.1559 79.4725 30.1559C79.4753 30.1559 79.4781 30.1559 79.481 30.1559C79.4838 30.1559 79.4867 30.1559 79.4895 30.1559C79.4923 30.1559 79.4952 30.1559 79.498 30.1559C79.5009 30.1559 79.5037 30.1559 79.5065 30.1559C79.5094 30.1559 79.5122 30.1559 79.5151 30.1559C79.5179 30.1559 79.5208 30.1559 79.5236 30.1559C79.5265 30.1559 79.5293 30.1559 79.5322 30.1559C79.535 30.1559 79.5379 30.1559 79.5407 30.1559C79.5436 30.1559 79.5464 30.1559 79.5493 30.1559C79.5521 30.1559 79.555 30.1559 79.5578 30.1559C79.5607 30.1559 79.5635 30.1559 79.5664 30.1559C79.5692 30.1559 79.5721 30.1559 79.575 30.1559C79.5778 30.1559 79.5807 30.1559 79.5835 30.1559C79.5864 30.1559 79.5893 30.1559 79.5921 30.1559C79.595 30.1559 79.5978 30.1559 79.6007 30.1559C79.6036 30.1559 79.6064 30.1559 79.6093 30.1559C79.6122 30.1559 79.615 30.1559 79.6179 30.1559C79.6208 30.1559 79.6236 30.1559 79.6265 30.1559C79.6294 30.1559 79.6322 30.1559 79.6351 30.1559C79.638 30.1559 79.6408 30.1559 79.6437 30.1559C79.6466 30.1559 79.6495 30.1559 79.6523 30.1559C79.6552 30.1559 79.6581 30.1559 79.661 30.1559C79.6638 30.1559 79.6667 30.1559 79.6696 30.1559C79.6725 30.1559 79.6754 30.1559 79.6782 30.1559C79.6811 30.1559 79.684 30.1559 79.6869 30.1559C79.6898 30.1559 79.6926 30.1559 79.6955 30.1559C79.6984 30.1559 79.7013 30.1559 79.7042 30.1559C79.7071 30.1559 79.71 30.1559 79.7128 30.1559C79.7157 30.1559 79.7186 30.1559 79.7215 30.1559C79.7244 30.1559 79.7273 30.1559 79.7302 30.1559C79.7331 30.1559 79.736 30.1559 79.7389 30.1559C79.7418 30.1559 79.7447 30.1559 79.7475 30.1559C79.7504 30.1559 79.7533 30.1559 79.7562 30.1559C79.7591 30.1559 79.762 30.1559 79.7649 30.1559C79.7678 30.1559 79.7707 30.1559 79.7736 30.1559C79.7765 30.1559 79.7794 30.1559 79.7823 30.1559C79.7853 30.1559 79.7882 30.1559 79.7911 30.1559C79.794 30.1559 79.7969 30.1559 79.7998 30.1559C79.8027 30.1559 79.8056 30.1559 79.8085 30.1559C79.8114 30.1559 79.8143 30.1559 79.8172 30.1559C79.8202 30.1559 79.8231 30.1559 79.826 30.1559C79.8289 30.1559 79.8318 30.1559 79.8347 30.1559C79.8377 30.1559 79.8406 30.1559 79.8435 30.1559C79.8464 30.1559 79.8493 30.1559 79.8522 30.1559C79.8552 30.1559 79.8581 30.1559 79.861 30.1559C79.8639 30.1559 79.8669 30.1559 79.8698 30.1559C79.8727 30.1559 79.8756 30.1559 79.8786 30.1559C79.8815 30.1559 79.8844 30.1559 79.8873 30.1559C79.8903 30.1559 79.8932 30.1559 79.8961 30.1559C79.8991 30.1559 79.902 30.1559 79.9049 30.1559V27.1559C79.902 27.1559 79.8991 27.1559 79.8961 27.1559C79.8932 27.1559 79.8903 27.1559 79.8873 27.1559C79.8844 27.1559 79.8815 27.1559 79.8786 27.1559C79.8756 27.1559 79.8727 27.1559 79.8698 27.1559C79.8669 27.1559 79.8639 27.1559 79.861 27.1559C79.8581 27.1559 79.8552 27.1559 79.8522 27.1559C79.8493 27.1559 79.8464 27.1559 79.8435 27.1559C79.8406 27.1559 79.8377 27.1559 79.8347 27.1559C79.8318 27.1559 79.8289 27.1559 79.826 27.1559C79.8231 27.1559 79.8202 27.1559 79.8172 27.1559C79.8143 27.1559 79.8114 27.1559 79.8085 27.1559C79.8056 27.1559 79.8027 27.1559 79.7998 27.1559C79.7969 27.1559 79.794 27.1559 79.7911 27.1559C79.7882 27.1559 79.7853 27.1559 79.7823 27.1559C79.7794 27.1559 79.7765 27.1559 79.7736 27.1559C79.7707 27.1559 79.7678 27.1559 79.7649 27.1559C79.762 27.1559 79.7591 27.1559 79.7562 27.1559C79.7533 27.1559 79.7504 27.1559 79.7475 27.1559C79.7447 27.1559 79.7418 27.1559 79.7389 27.1559C79.736 27.1559 79.7331 27.1559 79.7302 27.1559C79.7273 27.1559 79.7244 27.1559 79.7215 27.1559C79.7186 27.1559 79.7157 27.1559 79.7128 27.1559C79.71 27.1559 79.7071 27.1559 79.7042 27.1559C79.7013 27.1559 79.6984 27.1559 79.6955 27.1559C79.6926 27.1559 79.6898 27.1559 79.6869 27.1559C79.684 27.1559 79.6811 27.1559 79.6782 27.1559C79.6754 27.1559 79.6725 27.1559 79.6696 27.1559C79.6667 27.1559 79.6638 27.1559 79.661 27.1559C79.6581 27.1559 79.6552 27.1559 79.6523 27.1559C79.6495 27.1559 79.6466 27.1559 79.6437 27.1559C79.6408 27.1559 79.638 27.1559 79.6351 27.1559C79.6322 27.1559 79.6294 27.1559 79.6265 27.1559C79.6236 27.1559 79.6208 27.1559 79.6179 27.1559C79.615 27.1559 79.6122 27.1559 79.6093 27.1559C79.6064 27.1559 79.6036 27.1559 79.6007 27.1559C79.5978 27.1559 79.595 27.1559 79.5921 27.1559C79.5893 27.1559 79.5864 27.1559 79.5835 27.1559C79.5807 27.1559 79.5778 27.1559 79.575 27.1559C79.5721 27.1559 79.5692 27.1559 79.5664 27.1559C79.5635 27.1559 79.5607 27.1559 79.5578 27.1559C79.555 27.1559 79.5521 27.1559 79.5493 27.1559C79.5464 27.1559 79.5436 27.1559 79.5407 27.1559C79.5379 27.1559 79.535 27.1559 79.5322 27.1559C79.5293 27.1559 79.5265 27.1559 79.5236 27.1559C79.5208 27.1559 79.5179 27.1559 79.5151 27.1559C79.5122 27.1559 79.5094 27.1559 79.5065 27.1559C79.5037 27.1559 79.5009 27.1559 79.498 27.1559C79.4952 27.1559 79.4923 27.1559 79.4895 27.1559C79.4867 27.1559 79.4838 27.1559 79.481 27.1559C79.4781 27.1559 79.4753 27.1559 79.4725 27.1559C79.4696 27.1559 79.4668 27.1559 79.464 27.1559C79.4611 27.1559 79.4583 27.1559 79.4555 27.1559C79.4526 27.1559 79.4498 27.1559 79.447 27.1559C79.4441 27.1559 79.4413 27.1559 79.4385 27.1559C79.4356 27.1559 79.4328 27.1559 79.43 27.1559C79.4272 27.1559 79.4243 27.1559 79.4215 27.1559C79.4187 27.1559 79.4159 27.1559 79.413 27.1559C79.4102 27.1559 79.4074 27.1559 79.4046 27.1559C79.4017 27.1559 79.3989 27.1559 79.3961 27.1559C79.3933 27.1559 79.3905 27.1559 79.3876 27.1559C79.3848 27.1559 79.382 27.1559 79.3792 27.1559C79.3764 27.1559 79.3735 27.1559 79.3707 27.1559C79.3679 27.1559 79.3651 27.1559 79.3623 27.1559C79.3595 27.1559 79.3567 27.1559 79.3538 27.1559C79.351 27.1559 79.3482 27.1559 79.3454 27.1559C79.3426 27.1559 79.3398 27.1559 79.337 27.1559C79.3342 27.1559 79.3314 27.1559 79.3285 27.1559C79.3257 27.1559 79.3229 27.1559 79.3201 27.1559C79.3173 27.1559 79.3145 27.1559 79.3117 27.1559C79.3089 27.1559 79.3061 27.1559 79.3033 27.1559C79.3005 27.1559 79.2977 27.1559 79.2949 27.1559C79.2921 27.1559 79.2893 27.1559 79.2865 27.1559C79.2837 27.1559 79.2809 27.1559 79.2781 27.1559C79.2753 27.1559 79.2725 27.1559 79.2697 27.1559C79.2669 27.1559 79.2641 27.1559 79.2613 27.1559C79.2585 27.1559 79.2557 27.1559 79.2529 27.1559C79.2501 27.1559 79.2473 27.1559 79.2445 27.1559C79.2417 27.1559 79.2389 27.1559 79.2361 27.1559C79.2334 27.1559 79.2306 27.1559 79.2278 27.1559C79.225 27.1559 79.2222 27.1559 79.2194 27.1559C79.2166 27.1559 79.2138 27.1559 79.211 27.1559C79.2083 27.1559 79.2055 27.1559 79.2027 27.1559C79.1999 27.1559 79.1971 27.1559 79.1943 27.1559C79.1915 27.1559 79.1888 27.1559 79.186 27.1559C79.1832 27.1559 79.1804 27.1559 79.1776 27.1559C79.1748 27.1559 79.1721 27.1559 79.1693 27.1559C79.1665 27.1559 79.1637 27.1559 79.1609 27.1559C79.1582 27.1559 79.1554 27.1559 79.1526 27.1559C79.1498 27.1559 79.1471 27.1559 79.1443 27.1559C79.1415 27.1559 79.1387 27.1559 79.136 27.1559C79.1332 27.1559 79.1304 27.1559 79.1276 27.1559C79.1249 27.1559 79.1221 27.1559 79.1193 27.1559C79.1165 27.1559 79.1138 27.1559 79.111 27.1559C79.1082 27.1559 79.1055 27.1559 79.1027 27.1559C79.0999 27.1559 79.0972 27.1559 79.0944 27.1559C79.0916 27.1559 79.0889 27.1559 79.0861 27.1559C79.0833 27.1559 79.0806 27.1559 79.0778 27.1559C79.075 27.1559 79.0723 27.1559 79.0695 27.1559C79.0667 27.1559 79.064 27.1559 79.0612 27.1559C79.0584 27.1559 79.0557 27.1559 79.0529 27.1559C79.0502 27.1559 79.0474 27.1559 79.0446 27.1559C79.0419 27.1559 79.0391 27.1559 79.0364 27.1559C79.0336 27.1559 79.0308 27.1559 79.0281 27.1559C79.0253 27.1559 79.0226 27.1559 79.0198 27.1559C79.0171 27.1559 79.0143 27.1559 79.0115 27.1559C79.0088 27.1559 79.006 27.1559 79.0033 27.1559C79.0005 27.1559 78.9978 27.1559 78.995 27.1559C78.9923 27.1559 78.9895 27.1559 78.9868 27.1559C78.984 27.1559 78.9813 27.1559 78.9785 27.1559C78.9758 27.1559 78.973 27.1559 78.9703 27.1559C78.9675 27.1559 78.9648 27.1559 78.962 27.1559C78.9593 27.1559 78.9565 27.1559 78.9538 27.1559C78.951 27.1559 78.9483 27.1559 78.9455 27.1559C78.9428 27.1559 78.94 27.1559 78.9373 27.1559C78.9346 27.1559 78.9318 27.1559 78.9291 27.1559C78.9263 27.1559 78.9236 27.1559 78.9208 27.1559C78.9181 27.1559 78.9154 27.1559 78.9126 27.1559C78.9099 27.1559 78.9071 27.1559 78.9044 27.1559C78.9016 27.1559 78.8989 27.1559 78.8962 27.1559C78.8934 27.1559 78.8907 27.1559 78.888 27.1559C78.8852 27.1559 78.8825 27.1559 78.8797 27.1559C78.877 27.1559 78.8743 27.1559 78.8715 27.1559C78.8688 27.1559 78.8661 27.1559 78.8633 27.1559C78.8606 27.1559 78.8579 27.1559 78.8551 27.1559C78.8524 27.1559 78.8497 27.1559 78.8469 27.1559C78.8442 27.1559 78.8415 27.1559 78.8387 27.1559C78.836 27.1559 78.8333 27.1559 78.8305 27.1559C78.8278 27.1559 78.8251 27.1559 78.8223 27.1559C78.8196 27.1559 78.8169 27.1559 78.8142 27.1559C78.8114 27.1559 78.8087 27.1559 78.806 27.1559C78.8033 27.1559 78.8005 27.1559 78.7978 27.1559C78.7951 27.1559 78.7923 27.1559 78.7896 27.1559C78.7869 27.1559 78.7842 27.1559 78.7814 27.1559C78.7787 27.1559 78.776 27.1559 78.7733 27.1559C78.7705 27.1559 78.7678 27.1559 78.7651 27.1559C78.7624 27.1559 78.7597 27.1559 78.7569 27.1559C78.7542 27.1559 78.7515 27.1559 78.7488 27.1559C78.7461 27.1559 78.7433 27.1559 78.7406 27.1559C78.7379 27.1559 78.7352 27.1559 78.7325 27.1559C78.7297 27.1559 78.727 27.1559 78.7243 27.1559C78.7216 27.1559 78.7189 27.1559 78.7161 27.1559C78.7134 27.1559 78.7107 27.1559 78.708 27.1559C78.7053 27.1559 78.7026 27.1559 78.6999 27.1559C78.6971 27.1559 78.6944 27.1559 78.6917 27.1559C78.689 27.1559 78.6863 27.1559 78.6836 27.1559C78.6809 27.1559 78.6781 27.1559 78.6754 27.1559C78.6727 27.1559 78.67 27.1559 78.6673 27.1559C78.6646 27.1559 78.6619 27.1559 78.6592 27.1559C78.6564 27.1559 78.6537 27.1559 78.651 27.1559C78.6483 27.1559 78.6456 27.1559 78.6429 27.1559C78.6402 27.1559 78.6375 27.1559 78.6348 27.1559C78.6321 27.1559 78.6294 27.1559 78.6266 27.1559C78.6239 27.1559 78.6212 27.1559 78.6185 27.1559C78.6158 27.1559 78.6131 27.1559 78.6104 27.1559C78.6077 27.1559 78.605 27.1559 78.6023 27.1559C78.5996 27.1559 78.5969 27.1559 78.5942 27.1559C78.5915 27.1559 78.5888 27.1559 78.5861 27.1559C78.5834 27.1559 78.5807 27.1559 78.578 27.1559C78.5752 27.1559 78.5725 27.1559 78.5698 27.1559C78.5671 27.1559 78.5644 27.1559 78.5617 27.1559C78.559 27.1559 78.5563 27.1559 78.5536 27.1559C78.5509 27.1559 78.5482 27.1559 78.5455 27.1559C78.5428 27.1559 78.5401 27.1559 78.5374 27.1559C78.5347 27.1559 78.532 27.1559 78.5293 27.1559C78.5266 27.1559 78.5239 27.1559 78.5212 27.1559C78.5185 27.1559 78.5158 27.1559 78.5131 27.1559C78.5105 27.1559 78.5078 27.1559 78.5051 27.1559C78.5024 27.1559 78.4997 27.1559 78.497 27.1559C78.4943 27.1559 78.4916 27.1559 78.4889 27.1559C78.4862 27.1559 78.4835 27.1559 78.4808 27.1559C78.4781 27.1559 78.4754 27.1559 78.4727 27.1559C78.47 27.1559 78.4673 27.1559 78.4646 27.1559C78.4619 27.1559 78.4592 27.1559 78.4566 27.1559C78.4539 27.1559 78.4512 27.1559 78.4485 27.1559C78.4458 27.1559 78.4431 27.1559 78.4404 27.1559C78.4377 27.1559 78.435 27.1559 78.4323 27.1559C78.4296 27.1559 78.4269 27.1559 78.4243 27.1559C78.4216 27.1559 78.4189 27.1559 78.4162 27.1559C78.4135 27.1559 78.4108 27.1559 78.4081 27.1559C78.4054 27.1559 78.4027 27.1559 78.4001 27.1559C78.3974 27.1559 78.3947 27.1559 78.392 27.1559C78.3893 27.1559 78.3866 27.1559 78.3839 27.1559C78.3812 27.1559 78.3785 27.1559 78.3759 27.1559C78.3732 27.1559 78.3705 27.1559 78.3678 27.1559C78.3651 27.1559 78.3624 27.1559 78.3597 27.1559C78.3571 27.1559 78.3544 27.1559 78.3517 27.1559C78.349 27.1559 78.3463 27.1559 78.3436 27.1559C78.3409 27.1559 78.3383 27.1559 78.3356 27.1559C78.3329 27.1559 78.3302 27.1559 78.3275 27.1559C78.3248 27.1559 78.3222 27.1559 78.3195 27.1559C78.3168 27.1559 78.3141 27.1559 78.3114 27.1559C78.3087 27.1559 78.3061 27.1559 78.3034 27.1559C78.3007 27.1559 78.298 27.1559 78.2953 27.1559C78.2926 27.1559 78.29 27.1559 78.2873 27.1559C78.2846 27.1559 78.2819 27.1559 78.2792 27.1559C78.2765 27.1559 78.2739 27.1559 78.2712 27.1559C78.2685 27.1559 78.2658 27.1559 78.2631 27.1559C78.2605 27.1559 78.2578 27.1559 78.2551 27.1559C78.2524 27.1559 78.2497 27.1559 78.2471 27.1559C78.2444 27.1559 78.2417 27.1559 78.239 27.1559C78.2363 27.1559 78.2337 27.1559 78.231 27.1559C78.2283 27.1559 78.2256 27.1559 78.2229 27.1559C78.2203 27.1559 78.2176 27.1559 78.2149 27.1559C78.2122 27.1559 78.2096 27.1559 78.2069 27.1559C78.2042 27.1559 78.2015 27.1559 78.1988 27.1559C78.1962 27.1559 78.1935 27.1559 78.1908 27.1559C78.1881 27.1559 78.1855 27.1559 78.1828 27.1559C78.1801 27.1559 78.1774 27.1559 78.1747 27.1559C78.1721 27.1559 78.1694 27.1559 78.1667 27.1559C78.164 27.1559 78.1614 27.1559 78.1587 27.1559C78.156 27.1559 78.1533 27.1559 78.1507 27.1559C78.148 27.1559 78.1453 27.1559 78.1426 27.1559C78.14 27.1559 78.1373 27.1559 78.1346 27.1559C78.1319 27.1559 78.1293 27.1559 78.1266 27.1559C78.1239 27.1559 78.1212 27.1559 78.1186 27.1559C78.1159 27.1559 78.1132 27.1559 78.1105 27.1559C78.1079 27.1559 78.1052 27.1559 78.1025 27.1559C78.0998 27.1559 78.0972 27.1559 78.0945 27.1559C78.0918 27.1559 78.0891 27.1559 78.0865 27.1559C78.0838 27.1559 78.0811 27.1559 78.0784 27.1559C78.0758 27.1559 78.0731 27.1559 78.0704 27.1559C78.0677 27.1559 78.0651 27.1559 78.0624 27.1559C78.0597 27.1559 78.057 27.1559 78.0544 27.1559C78.0517 27.1559 78.049 27.1559 78.0463 27.1559C78.0437 27.1559 78.041 27.1559 78.0383 27.1559C78.0357 27.1559 78.033 27.1559 78.0303 27.1559C78.0276 27.1559 78.025 27.1559 78.0223 27.1559C78.0196 27.1559 78.0169 27.1559 78.0143 27.1559C78.0116 27.1559 78.0089 27.1559 78.0063 27.1559C78.0036 27.1559 78.0009 27.1559 77.9982 27.1559C77.9956 27.1559 77.9929 27.1559 77.9902 27.1559C77.9875 27.1559 77.9849 27.1559 77.9822 27.1559C77.9795 27.1559 77.9769 27.1559 77.9742 27.1559C77.9715 27.1559 77.9688 27.1559 77.9662 27.1559C77.9635 27.1559 77.9608 27.1559 77.9582 27.1559C77.9555 27.1559 77.9528 27.1559 77.9501 27.1559C77.9475 27.1559 77.9448 27.1559 77.9421 27.1559C77.9394 27.1559 77.9368 27.1559 77.9341 27.1559C77.9314 27.1559 77.9288 27.1559 77.9261 27.1559C77.9234 27.1559 77.9207 27.1559 77.9181 27.1559C77.9154 27.1559 77.9127 27.1559 77.9101 27.1559C77.9074 27.1559 77.9047 27.1559 77.902 27.1559C77.8994 27.1559 77.8967 27.1559 77.894 27.1559C77.8913 27.1559 77.8887 27.1559 77.886 27.1559C77.8833 27.1559 77.8807 27.1559 77.878 27.1559C77.8753 27.1559 77.8726 27.1559 77.87 27.1559C77.8673 27.1559 77.8646 27.1559 77.862 27.1559C77.8593 27.1559 77.8566 27.1559 77.8539 27.1559C77.8513 27.1559 77.8486 27.1559 77.8459 27.1559C77.8433 27.1559 77.8406 27.1559 77.8379 27.1559C77.8352 27.1559 77.8326 27.1559 77.8299 27.1559C77.8272 27.1559 77.8245 27.1559 77.8219 27.1559C77.8192 27.1559 77.8165 27.1559 77.8139 27.1559C77.8112 27.1559 77.8085 27.1559 77.8058 27.1559C77.8032 27.1559 77.8005 27.1559 77.7978 27.1559C77.7951 27.1559 77.7925 27.1559 77.7898 27.1559C77.7871 27.1559 77.7845 27.1559 77.7818 27.1559C77.7791 27.1559 77.7764 27.1559 77.7738 27.1559C77.7711 27.1559 77.7684 27.1559 77.7657 27.1559C77.7631 27.1559 77.7604 27.1559 77.7577 27.1559C77.755 27.1559 77.7524 27.1559 77.7497 27.1559C77.747 27.1559 77.7443 27.1559 77.7417 27.1559C77.739 27.1559 77.7363 27.1559 77.7336 27.1559C77.731 27.1559 77.7283 27.1559 77.7256 27.1559C77.723 27.1559 77.7203 27.1559 77.7176 27.1559C77.7149 27.1559 77.7123 27.1559 77.7096 27.1559C77.7069 27.1559 77.7042 27.1559 77.7016 27.1559C77.6989 27.1559 77.6962 27.1559 77.6935 27.1559C77.6909 27.1559 77.6882 27.1559 77.6855 27.1559C77.6828 27.1559 77.6801 27.1559 77.6775 27.1559C77.6748 27.1559 77.6721 27.1559 77.6694 27.1559C77.6668 27.1559 77.6641 27.1559 77.6614 27.1559C77.6587 27.1559 77.6561 27.1559 77.6534 27.1559C77.6507 27.1559 77.648 27.1559 77.6454 27.1559C77.6427 27.1559 77.64 27.1559 77.6373 27.1559C77.6346 27.1559 77.632 27.1559 77.6293 27.1559C77.6266 27.1559 77.6239 27.1559 77.6213 27.1559C77.6186 27.1559 77.6159 27.1559 77.6132 27.1559C77.6105 27.1559 77.6079 27.1559 77.6052 27.1559C77.6025 27.1559 77.5998 27.1559 77.5972 27.1559C77.5945 27.1559 77.5918 27.1559 77.5891 27.1559C77.5864 27.1559 77.5838 27.1559 77.5811 27.1559C77.5784 27.1559 77.5757 27.1559 77.573 27.1559C77.5704 27.1559 77.5677 27.1559 77.565 27.1559C77.5623 27.1559 77.5596 27.1559 77.557 27.1559C77.5543 27.1559 77.5516 27.1559 77.5489 27.1559C77.5462 27.1559 77.5435 27.1559 77.5409 27.1559C77.5382 27.1559 77.5355 27.1559 77.5328 27.1559C77.5301 27.1559 77.5275 27.1559 77.5248 27.1559C77.5221 27.1559 77.5194 27.1559 77.5167 27.1559C77.514 27.1559 77.5114 27.1559 77.5087 27.1559C77.506 27.1559 77.5033 27.1559 77.5006 27.1559C77.4979 27.1559 77.4953 27.1559 77.4926 27.1559C77.4899 27.1559 77.4872 27.1559 77.4845 27.1559C77.4818 27.1559 77.4791 27.1559 77.4765 27.1559C77.4738 27.1559 77.4711 27.1559 77.4684 27.1559C77.4657 27.1559 77.463 27.1559 77.4603 27.1559C77.4577 27.1559 77.455 27.1559 77.4523 27.1559C77.4496 27.1559 77.4469 27.1559 77.4442 27.1559C77.4415 27.1559 77.4389 27.1559 77.4362 27.1559C77.4335 27.1559 77.4308 27.1559 77.4281 27.1559C77.4254 27.1559 77.4227 27.1559 77.42 27.1559C77.4173 27.1559 77.4147 27.1559 77.412 27.1559C77.4093 27.1559 77.4066 27.1559 77.4039 27.1559C77.4012 27.1559 77.3985 27.1559 77.3958 27.1559C77.3931 27.1559 77.3904 27.1559 77.3878 27.1559C77.3851 27.1559 77.3824 27.1559 77.3797 27.1559C77.377 27.1559 77.3743 27.1559 77.3716 27.1559C77.3689 27.1559 77.3662 27.1559 77.3635 27.1559C77.3608 27.1559 77.3581 27.1559 77.3554 27.1559C77.3527 27.1559 77.3501 27.1559 77.3474 27.1559C77.3447 27.1559 77.342 27.1559 77.3393 27.1559C77.3366 27.1559 77.3339 27.1559 77.3312 27.1559C77.3285 27.1559 77.3258 27.1559 77.3231 27.1559C77.3204 27.1559 77.3177 27.1559 77.315 27.1559C77.3123 27.1559 77.3096 27.1559 77.3069 27.1559C77.3042 27.1559 77.3015 27.1559 77.2988 27.1559C77.2961 27.1559 77.2934 27.1559 77.2907 27.1559C77.288 27.1559 77.2853 27.1559 77.2826 27.1559C77.2799 27.1559 77.2772 27.1559 77.2745 27.1559C77.2718 27.1559 77.2691 27.1559 77.2664 27.1559C77.2637 27.1559 77.261 27.1559 77.2583 27.1559C77.2556 27.1559 77.2529 27.1559 77.2502 27.1559C77.2475 27.1559 77.2448 27.1559 77.2421 27.1559C77.2394 27.1559 77.2367 27.1559 77.234 27.1559C77.2313 27.1559 77.2286 27.1559 77.2259 27.1559C77.2232 27.1559 77.2205 27.1559 77.2178 27.1559C77.2151 27.1559 77.2124 27.1559 77.2097 27.1559C77.2069 27.1559 77.2042 27.1559 77.2015 27.1559C77.1988 27.1559 77.1961 27.1559 77.1934 27.1559C77.1907 27.1559 77.188 27.1559 77.1853 27.1559C77.1826 27.1559 77.1799 27.1559 77.1772 27.1559C77.1744 27.1559 77.1717 27.1559 77.169 27.1559C77.1663 27.1559 77.1636 27.1559 77.1609 27.1559C77.1582 27.1559 77.1555 27.1559 77.1528 27.1559C77.15 27.1559 77.1473 27.1559 77.1446 27.1559C77.1419 27.1559 77.1392 27.1559 77.1365 27.1559C77.1338 27.1559 77.1311 27.1559 77.1283 27.1559C77.1256 27.1559 77.1229 27.1559 77.1202 27.1559C77.1175 27.1559 77.1148 27.1559 77.112 27.1559C77.1093 27.1559 77.1066 27.1559 77.1039 27.1559C77.1012 27.1559 77.0985 27.1559 77.0957 27.1559C77.093 27.1559 77.0903 27.1559 77.0876 27.1559C77.0849 27.1559 77.0821 27.1559 77.0794 27.1559C77.0767 27.1559 77.074 27.1559 77.0713 27.1559C77.0685 27.1559 77.0658 27.1559 77.0631 27.1559C77.0604 27.1559 77.0577 27.1559 77.0549 27.1559C77.0522 27.1559 77.0495 27.1559 77.0468 27.1559C77.044 27.1559 77.0413 27.1559 77.0386 27.1559C77.0359 27.1559 77.0331 27.1559 77.0304 27.1559C77.0277 27.1559 77.025 27.1559 77.0222 27.1559C77.0195 27.1559 77.0168 27.1559 77.014 27.1559C77.0113 27.1559 77.0086 27.1559 77.0059 27.1559C77.0031 27.1559 77.0004 27.1559 76.9977 27.1559C76.9949 27.1559 76.9922 27.1559 76.9895 27.1559C76.9868 27.1559 76.984 27.1559 76.9813 27.1559C76.9786 27.1559 76.9758 27.1559 76.9731 27.1559C76.9704 27.1559 76.9676 27.1559 76.9649 27.1559C76.9622 27.1559 76.9594 27.1559 76.9567 27.1559C76.954 27.1559 76.9512 27.1559 76.9485 27.1559C76.9457 27.1559 76.943 27.1559 76.9403 27.1559C76.9375 27.1559 76.9348 27.1559 76.9321 27.1559C76.9293 27.1559 76.9266 27.1559 76.9238 27.1559C76.9211 27.1559 76.9184 27.1559 76.9156 27.1559C76.9129 27.1559 76.9101 27.1559 76.9074 27.1559C76.9047 27.1559 76.9019 27.1559 76.8992 27.1559C76.8964 27.1559 76.8937 27.1559 76.8909 27.1559C76.8882 27.1559 76.8855 27.1559 76.8827 27.1559C76.88 27.1559 76.8772 27.1559 76.8745 27.1559C76.8717 27.1559 76.869 27.1559 76.8662 27.1559C76.8635 27.1559 76.8607 27.1559 76.858 27.1559C76.8552 27.1559 76.8525 27.1559 76.8497 27.1559C76.847 27.1559 76.8442 27.1559 76.8415 27.1559C76.8387 27.1559 76.836 27.1559 76.8332 27.1559C76.8305 27.1559 76.8277 27.1559 76.825 27.1559C76.8222 27.1559 76.8195 27.1559 76.8167 27.1559C76.814 27.1559 76.8112 27.1559 76.8084 27.1559C76.8057 27.1559 76.8029 27.1559 76.8002 27.1559C76.7974 27.1559 76.7947 27.1559 76.7919 27.1559C76.7891 27.1559 76.7864 27.1559 76.7836 27.1559C76.7809 27.1559 76.7781 27.1559 76.7753 27.1559C76.7726 27.1559 76.7698 27.1559 76.7671 27.1559C76.7643 27.1559 76.7615 27.1559 76.7588 27.1559C76.756 27.1559 76.7532 27.1559 76.7505 27.1559C76.7477 27.1559 76.745 27.1559 76.7422 27.1559C76.7394 27.1559 76.7367 27.1559 76.7339 27.1559C76.7311 27.1559 76.7283 27.1559 76.7256 27.1559C76.7228 27.1559 76.72 27.1559 76.7173 27.1559C76.7145 27.1559 76.7117 27.1559 76.709 27.1559C76.7062 27.1559 76.7034 27.1559 76.7006 27.1559C76.6979 27.1559 76.6951 27.1559 76.6923 27.1559C76.6896 27.1559 76.6868 27.1559 76.684 27.1559C76.6812 27.1559 76.6785 27.1559 76.6757 27.1559C76.6729 27.1559 76.6701 27.1559 76.6673 27.1559C76.6646 27.1559 76.6618 27.1559 76.659 27.1559C76.6562 27.1559 76.6534 27.1559 76.6507 27.1559C76.6479 27.1559 76.6451 27.1559 76.6423 27.1559C76.6395 27.1559 76.6368 27.1559 76.634 27.1559C76.6312 27.1559 76.6284 27.1559 76.6256 27.1559C76.6228 27.1559 76.62 27.1559 76.6173 27.1559C76.6145 27.1559 76.6117 27.1559 76.6089 27.1559C76.6061 27.1559 76.6033 27.1559 76.6005 27.1559C76.5977 27.1559 76.595 27.1559 76.5922 27.1559C76.5894 27.1559 76.5866 27.1559 76.5838 27.1559C76.581 27.1559 76.5782 27.1559 76.5754 27.1559C76.5726 27.1559 76.5698 27.1559 76.567 27.1559C76.5642 27.1559 76.5614 27.1559 76.5586 27.1559C76.5558 27.1559 76.553 27.1559 76.5502 27.1559C76.5474 27.1559 76.5446 27.1559 76.5418 27.1559C76.539 27.1559 76.5362 27.1559 76.5334 27.1559C76.5306 27.1559 76.5278 27.1559 76.525 27.1559C76.5222 27.1559 76.5194 27.1559 76.5166 27.1559C76.5138 27.1559 76.511 27.1559 76.5082 27.1559C76.5054 27.1559 76.5026 27.1559 76.4998 27.1559C76.497 27.1559 76.4942 27.1559 76.4914 27.1559C76.4886 27.1559 76.4857 27.1559 76.4829 27.1559C76.4801 27.1559 76.4773 27.1559 76.4745 27.1559C76.4717 27.1559 76.4689 27.1559 76.4661 27.1559C76.4633 27.1559 76.4604 27.1559 76.4576 27.1559C76.4548 27.1559 76.452 27.1559 76.4492 27.1559C76.4464 27.1559 76.4435 27.1559 76.4407 27.1559C76.4379 27.1559 76.4351 27.1559 76.4323 27.1559C76.4294 27.1559 76.4266 27.1559 76.4238 27.1559C76.421 27.1559 76.4182 27.1559 76.4153 27.1559C76.4125 27.1559 76.4097 27.1559 76.4069 27.1559C76.404 27.1559 76.4012 27.1559 76.3984 27.1559C76.3955 27.1559 76.3927 27.1559 76.3899 27.1559C76.3871 27.1559 76.3842 27.1559 76.3814 27.1559C76.3786 27.1559 76.3757 27.1559 76.3729 27.1559C76.3701 27.1559 76.3672 27.1559 76.3644 27.1559C76.3616 27.1559 76.3587 27.1559 76.3559 27.1559C76.3531 27.1559 76.3502 27.1559 76.3474 27.1559C76.3446 27.1559 76.3417 27.1559 76.3389 27.1559C76.336 27.1559 76.3332 27.1559 76.3304 27.1559C76.3275 27.1559 76.3247 27.1559 76.3218 27.1559C76.319 27.1559 76.3162 27.1559 76.3133 27.1559C76.3105 27.1559 76.3076 27.1559 76.3048 27.1559C76.3019 27.1559 76.2991 27.1559 76.2962 27.1559C76.2934 27.1559 76.2905 27.1559 76.2877 27.1559C76.2848 27.1559 76.282 27.1559 76.2791 27.1559C76.2763 27.1559 76.2734 27.1559 76.2706 27.1559C76.2677 27.1559 76.2649 27.1559 76.262 27.1559C76.2592 27.1559 76.2563 27.1559 76.2535 27.1559C76.2506 27.1559 76.2477 27.1559 76.2449 27.1559C76.242 27.1559 76.2392 27.1559 76.2363 27.1559C76.2334 27.1559 76.2306 27.1559 76.2277 27.1559C76.2249 27.1559 76.222 27.1559 76.2191 27.1559C76.2163 27.1559 76.2134 27.1559 76.2105 27.1559C76.2077 27.1559 76.2048 27.1559 76.2019 27.1559C76.1991 27.1559 76.1962 27.1559 76.1933 27.1559C76.1905 27.1559 76.1876 27.1559 76.1847 27.1559C76.1818 27.1559 76.179 27.1559 76.1761 27.1559C76.1732 27.1559 76.1704 27.1559 76.1675 27.1559C76.1646 27.1559 76.1617 27.1559 76.1588 27.1559C76.156 27.1559 76.1531 27.1559 76.1502 27.1559C76.1473 27.1559 76.1445 27.1559 76.1416 27.1559C76.1387 27.1559 76.1358 27.1559 76.1329 27.1559C76.13 27.1559 76.1272 27.1559 76.1243 27.1559C76.1214 27.1559 76.1185 27.1559 76.1156 27.1559C76.1127 27.1559 76.1098 27.1559 76.1069 27.1559C76.1041 27.1559 76.1012 27.1559 76.0983 27.1559C76.0954 27.1559 76.0925 27.1559 76.0896 27.1559C76.0867 27.1559 76.0838 27.1559 76.0809 27.1559C76.078 27.1559 76.0751 27.1559 76.0722 27.1559C76.0693 27.1559 76.0664 27.1559 76.0635 27.1559C76.0606 27.1559 76.0577 27.1559 76.0548 27.1559C76.0519 27.1559 76.049 27.1559 76.0461 27.1559C76.0432 27.1559 76.0403 27.1559 76.0374 27.1559C76.0345 27.1559 76.0316 27.1559 76.0287 27.1559C76.0258 27.1559 76.0229 27.1559 76.02 27.1559C76.0171 27.1559 76.0142 27.1559 76.0112 27.1559C76.0083 27.1559 76.0054 27.1559 76.0025 27.1559C75.9996 27.1559 75.9967 27.1559 75.9938 27.1559C75.9909 27.1559 75.9879 27.1559 75.985 27.1559C75.9821 27.1559 75.9792 27.1559 75.9763 27.1559C75.9733 27.1559 75.9704 27.1559 75.9675 27.1559C75.9646 27.1559 75.9617 27.1559 75.9587 27.1559C75.9558 27.1559 75.9529 27.1559 75.95 27.1559C75.947 27.1559 75.9441 27.1559 75.9412 27.1559C75.9382 27.1559 75.9353 27.1559 75.9324 27.1559C75.9295 27.1559 75.9265 27.1559 75.9236 27.1559C75.9207 27.1559 75.9177 27.1559 75.9148 27.1559C75.9119 27.1559 75.9089 27.1559 75.906 27.1559C75.903 27.1559 75.9001 27.1559 75.8972 27.1559C75.8942 27.1559 75.8913 27.1559 75.8883 27.1559C75.8854 27.1559 75.8825 27.1559 75.8795 27.1559C75.8766 27.1559 75.8736 27.1559 75.8707 27.1559C75.8677 27.1559 75.8648 27.1559 75.8618 27.1559C75.8589 27.1559 75.8559 27.1559 75.853 27.1559C75.85 27.1559 75.8471 27.1559 75.8441 27.1559C75.8412 27.1559 75.8382 27.1559 75.8353 27.1559C75.8323 27.1559 75.8294 27.1559 75.8264 27.1559C75.8235 27.1559 75.8205 27.1559 75.8175 27.1559C75.8146 27.1559 75.8116 27.1559 75.8087 27.1559C75.8057 27.1559 75.8027 27.1559 75.7998 27.1559C75.7968 27.1559 75.7938 27.1559 75.7909 27.1559C75.7879 27.1559 75.7849 27.1559 75.782 27.1559C75.779 27.1559 75.776 27.1559 75.7731 27.1559C75.7701 27.1559 75.7671 27.1559 75.7641 27.1559C75.7612 27.1559 75.7582 27.1559 75.7552 27.1559C75.7523 27.1559 75.7493 27.1559 75.7463 27.1559C75.7433 27.1559 75.7403 27.1559 75.7374 27.1559C75.7344 27.1559 75.7314 27.1559 75.7284 27.1559C75.7254 27.1559 75.7225 27.1559 75.7195 27.1559C75.7165 27.1559 75.7135 27.1559 75.7105 27.1559C75.7075 27.1559 75.7045 27.1559 75.7015 27.1559C75.6986 27.1559 75.6956 27.1559 75.6926 27.1559C75.6896 27.1559 75.6866 27.1559 75.6836 27.1559C75.6806 27.1559 75.6776 27.1559 75.6746 27.1559C75.6716 27.1559 75.6686 27.1559 75.6656 27.1559C75.6626 27.1559 75.6596 27.1559 75.6566 27.1559C75.6536 27.1559 75.6506 27.1559 75.6476 27.1559V30.1559ZM26.9693 27.7871V42.7312H29.9693V27.7871H26.9693ZM78.4049 28.6559C78.4049 30.8743 78.4288 33.2598 78.4525 35.6252C78.4763 37.994 78.5 40.3424 78.5 42.5H81.5C81.5 40.3245 81.4761 37.9603 81.4524 35.5951C81.4286 33.2265 81.4049 30.8565 81.4049 28.6559H78.4049ZM27.2773 41.8206C26.3698 43.0085 24.9662 44.4097 23.5534 45.913L25.7394 47.9675C27.0338 46.5903 28.6302 44.9915 29.6613 43.6418L27.2773 41.8206ZM23.6644 45.8064C23.2676 46.15 22.8804 46.5793 22.6014 46.8744C22.2823 47.2119 22.0506 47.4358 21.8425 47.5798L23.5501 50.0464C24.0419 49.7059 24.462 49.2732 24.7814 48.9354C25.1408 48.5552 25.3788 48.2903 25.6283 48.0742L23.6644 45.8064ZM21.8425 47.5798C20.82 48.2877 20.0566 49.076 19.3082 49.8684L21.4892 51.9283C22.2309 51.1429 22.8087 50.5597 23.5501 50.0464L21.8425 47.5798ZM19.3082 49.8684C17.7654 51.5019 16.0886 53.1644 14.4146 54.8384L16.5359 56.9597C18.1939 55.3017 19.9094 53.6011 21.4892 51.9283L19.3082 49.8684ZM14.4146 54.8384C11.9531 57.2998 10.0988 59.93 8.47807 62.9399L11.1195 64.3622C12.6252 61.566 14.3131 59.1825 16.5359 56.9597L14.4146 54.8384ZM8.47807 62.9399C7.88005 64.0505 7.34175 65.1791 6.83801 66.2985L9.57378 67.5296C10.0599 66.4493 10.5663 65.3896 11.1195 64.3622L8.47807 62.9399ZM6.83801 66.2985C6.47888 67.0966 6.06982 67.8533 5.62117 68.7519C5.19179 69.6119 4.75232 70.5542 4.44565 71.5508L7.31299 72.4331C7.5447 71.68 7.89345 70.9168 8.30524 70.092C8.69774 69.3058 9.18279 68.3985 9.57378 67.5296L6.83801 66.2985ZM4.44565 71.5508C4.30035 72.0231 4.07975 72.5023 3.80273 73.088C3.54123 73.6408 3.22212 74.303 2.98891 75.0027L5.83496 75.9513C5.99995 75.4564 6.23286 74.9665 6.51466 74.3707C6.78095 73.8077 7.09494 73.1418 7.31299 72.4331L4.44565 71.5508ZM2.98891 75.0027C2.6773 75.9375 2.40833 76.8783 2.15069 77.7877C1.89025 78.707 1.64224 79.5911 1.36205 80.4628L4.21813 81.3808C4.51778 80.4485 4.78128 79.5084 5.03709 78.6055C5.2957 77.6926 5.54774 76.813 5.83496 75.9513L2.98891 75.0027ZM1.36205 80.4628C0.23835 83.9587 0.208862 87.7013 0.208862 91.039H3.20886C3.20886 87.6464 3.25939 84.3635 4.21813 81.3808L1.36205 80.4628ZM0.208862 91.039C0.208862 92.6043 0.571252 94.3026 1.01392 95.6859L3.87119 94.7716C3.48674 93.5702 3.20886 92.1937 3.20886 91.039H0.208862ZM1.01392 95.6859C1.22574 96.3479 1.35924 97.0696 1.54689 97.9498C1.72268 98.7744 1.94502 99.7265 2.34166 100.599L5.07276 99.3577C4.82372 98.8099 4.65529 98.1421 4.48095 97.3243C4.31848 96.5622 4.14249 95.6194 3.87119 94.7716L1.01392 95.6859ZM2.34166 100.599C2.59208 101.15 2.71078 101.805 2.88582 102.722C3.04376 103.55 3.25392 104.624 3.78612 105.582L6.4086 104.125C6.14323 103.648 5.9997 103.035 5.83265 102.16C5.68271 101.374 5.50512 100.309 5.07276 99.3577L2.34166 100.599ZM3.78612 105.582C3.84951 105.696 3.91976 105.906 4.00698 106.304C4.07525 106.615 4.17613 107.169 4.31157 107.606L7.17676 106.716C7.09153 106.442 7.04782 106.164 6.93726 105.661C6.84567 105.243 6.70285 104.655 6.4086 104.125L3.78612 105.582ZM4.31157 107.606C4.45524 108.068 4.70238 108.564 4.83523 108.852C5.00615 109.222 5.06611 109.401 5.07982 109.497L8.04967 109.073C7.96647 108.49 7.72163 107.947 7.55923 107.595C7.35877 107.16 7.24406 106.933 7.17676 106.716L4.31157 107.606ZM5.07982 109.497C5.29651 111.014 6.21019 112.389 7.08281 113.461C7.96958 114.551 9.03028 115.574 9.7037 116.273L11.8632 114.19C11.0823 113.38 10.1902 112.526 9.40942 111.567C8.61452 110.591 8.14601 109.747 8.04967 109.073L5.07982 109.497ZM9.7037 116.273C10.3648 116.958 10.8484 117.665 11.5859 118.578L13.9198 116.693C13.3542 115.993 12.6421 114.998 11.8632 114.19L9.7037 116.273ZM11.5859 118.578C11.8585 118.915 12.2314 119.264 12.4512 119.479C12.7343 119.756 12.8566 119.898 12.9017 119.972L15.4615 118.407C15.1936 117.969 14.8028 117.583 14.5504 117.336C14.2347 117.026 14.0497 116.854 13.9198 116.693L11.5859 118.578ZM12.9017 119.972C13.332 120.676 13.8733 121.272 14.3638 121.774C14.9015 122.325 15.3037 122.694 15.7118 123.147L17.9417 121.14C17.4893 120.637 16.9093 120.087 16.5098 119.678C16.063 119.22 15.7122 118.817 15.4615 118.407L12.9017 119.972ZM15.7118 123.147C16.6572 124.197 17.6745 125.07 18.654 125.868C19.6583 126.687 20.5779 127.394 21.4775 128.208L23.4903 125.984C22.5143 125.101 21.4719 124.295 20.5497 123.543C19.6028 122.771 18.7294 122.015 17.9417 121.14L15.7118 123.147ZM21.4775 128.208C21.8486 128.544 22.2299 128.936 22.6631 129.383C23.084 129.818 23.5507 130.301 24.0442 130.758C25.0184 131.66 26.2428 132.601 27.7676 132.982L28.4952 130.072C27.712 129.876 26.9408 129.351 26.0823 128.556C25.6595 128.165 25.2506 127.743 24.8179 127.296C24.3976 126.862 23.9473 126.397 23.4903 125.984L21.4775 128.208ZM27.7676 132.982C30.5332 133.674 33.2846 134.209 36.065 134.703L36.5901 131.749C33.8372 131.26 31.1632 130.739 28.4952 130.072L27.7676 132.982ZM36.065 134.703C39.0664 135.237 42.0498 135.858 44.9829 136.627L45.7441 133.725C42.713 132.93 39.6475 132.293 36.5901 131.749L36.065 134.703ZM44.9829 136.627C48.6067 137.578 52.7405 137.371 56.0889 137.371V134.371C52.482 134.371 48.8869 134.55 45.7441 133.725L44.9829 136.627ZM56.0889 137.371C56.6282 137.371 57.0664 137.405 57.7352 137.421C58.3316 137.436 59.0136 137.429 59.6958 137.311L59.1818 134.355C58.7934 134.423 58.3455 134.435 57.8072 134.422C57.3411 134.411 56.6397 134.371 56.0889 134.371V137.371ZM59.6958 137.311C60.129 137.235 60.5206 137.106 60.8015 137.015C61.112 136.914 61.3084 136.852 61.5028 136.816L60.9661 133.865C60.5387 133.942 60.1492 134.072 59.8733 134.162C59.5678 134.261 59.3725 134.322 59.1818 134.355L59.6958 137.311ZM61.5028 136.816C62.2036 136.689 62.8939 136.507 63.5328 136.334C64.1902 136.157 64.787 135.99 65.3856 135.86L64.7483 132.929C64.0576 133.079 63.3704 133.271 62.7498 133.438C62.1109 133.611 61.5296 133.762 60.9661 133.865L61.5028 136.816ZM65.3856 135.86C66.3491 135.651 67.3718 135.508 68.3392 135.458L68.1856 132.462C67.0412 132.521 65.8565 132.688 64.7483 132.929L65.3856 135.86ZM68.3392 135.458C69.0753 135.42 69.7827 135.265 70.3834 135.121C71.026 134.968 71.5262 134.835 72.0335 134.757L71.5773 131.792C70.9117 131.894 70.2288 132.074 69.6872 132.203C69.1039 132.342 68.6262 132.439 68.1856 132.462L68.3392 135.458ZM72.0335 134.757C72.5945 134.671 73.2109 134.537 73.7091 134.441C74.2446 134.337 74.7047 134.262 75.1143 134.242L74.9645 131.245C74.3313 131.277 73.6974 131.387 73.1382 131.496C72.5416 131.611 72.0624 131.717 71.5773 131.792L72.0335 134.757ZM75.1143 134.242C75.767 134.209 76.2538 133.897 76.4694 133.758C76.6453 133.644 76.6361 133.644 76.7429 133.577C76.8047 133.539 76.8165 133.536 76.7995 133.543L75.7121 130.747C75.479 130.838 75.2866 130.95 75.1497 131.035C75.0805 131.079 75.0163 131.121 74.966 131.155C74.9105 131.192 74.8748 131.216 74.8375 131.24C74.6649 131.352 74.7597 131.256 74.9645 131.245L75.1143 134.242ZM76.7995 133.543C78.16 133.014 79.5728 132.513 80.9513 131.385L79.0516 129.063C78.1101 129.833 77.1771 130.177 75.7121 130.747L76.7995 133.543ZM80.9513 131.385C81.3218 131.082 81.737 130.811 82.2654 130.448C82.7558 130.111 83.3318 129.7 83.8328 129.199L81.7115 127.078C81.4216 127.368 81.046 127.645 80.5657 127.976C80.1233 128.28 79.5487 128.656 79.0516 129.063L80.9513 131.385ZM83.8328 129.199C84.2129 128.819 84.6939 128.461 85.2697 128.067C85.8031 127.703 86.4901 127.264 87.0703 126.829L85.2703 124.429C84.7584 124.813 84.2293 125.145 83.5781 125.59C82.9694 126.005 82.2974 126.492 81.7115 127.078L83.8328 129.199ZM87.0703 126.829C87.6976 126.358 88.2668 125.815 88.751 125.364C89.2608 124.89 89.7005 124.495 90.1693 124.176L88.4848 121.694C87.8045 122.156 87.2145 122.696 86.7075 123.168C86.175 123.663 85.7404 124.076 85.2703 124.429L87.0703 126.829ZM90.1693 124.176C90.4324 123.998 91.1451 123.55 91.6889 123.162C92.213 122.788 92.9769 122.207 93.3873 121.536L90.8275 119.971C90.8319 119.964 90.8192 119.986 90.773 120.037C90.7286 120.086 90.6662 120.148 90.5829 120.223C90.4142 120.373 90.1975 120.541 89.9471 120.719C89.3971 121.112 88.9489 121.379 88.4848 121.694L90.1693 124.176ZM93.3873 121.536C93.4548 121.425 93.5773 121.279 93.8087 121.036C93.9989 120.836 94.3166 120.518 94.5657 120.197L92.1977 118.356C92.068 118.522 91.9079 118.682 91.6353 118.968C91.4039 119.211 91.0785 119.561 90.8275 119.971L93.3873 121.536ZM94.5657 120.197C94.7828 119.918 94.9695 119.621 95.0864 119.444C95.2186 119.244 95.3127 119.115 95.4183 119.003L93.2372 116.943C92.9492 117.248 92.7407 117.552 92.5836 117.79C92.4111 118.051 92.3216 118.196 92.1977 118.356L94.5657 120.197ZM95.4183 119.003C95.9186 118.473 96.2676 117.849 96.5171 117.407C96.8014 116.903 96.9774 116.597 97.1833 116.367L94.9476 114.366C94.4807 114.888 94.143 115.51 93.9042 115.933C93.6305 116.418 93.4471 116.721 93.2373 116.943L95.4183 119.003ZM97.1833 116.367C97.6975 115.792 98.1271 115.167 98.4991 114.617C98.8888 114.04 99.2114 113.552 99.5723 113.111L97.2504 111.212C96.7819 111.784 96.3702 112.409 96.0137 112.936C95.6394 113.49 95.3108 113.961 94.9476 114.366L97.1833 116.367ZM99.5723 113.111C101.623 110.605 102.825 107.959 103.89 105.12L101.081 104.066C100.061 106.787 98.9965 109.078 97.2504 111.212L99.5723 113.111ZM103.89 105.12C104.171 104.371 104.374 103.614 104.556 102.936C104.744 102.235 104.908 101.619 105.121 101.032L102.302 100.006C102.035 100.74 101.838 101.489 101.658 102.16C101.472 102.853 101.303 103.473 101.081 104.066L103.89 105.12ZM105.121 101.032C105.485 100.031 105.859 98.7028 105.905 97.4875L102.907 97.3722C102.878 98.1362 102.621 99.1269 102.302 100.006L105.121 101.032ZM105.905 97.4875C105.926 96.9597 106.053 96.3493 106.238 95.6213C106.408 94.9509 106.648 94.113 106.789 93.36L103.839 92.8112C103.723 93.4363 103.536 94.0732 103.33 94.8817C103.139 95.6327 102.941 96.5053 102.907 97.3722L105.905 97.4875ZM106.789 93.36C106.998 92.2348 107.297 90.7559 107.297 89.3978H104.297C104.297 90.4155 104.068 91.5796 103.839 92.8112L106.789 93.36ZM107.297 89.3978C107.297 88.149 107.398 86.906 107.475 85.5328C107.549 84.1949 107.596 82.7743 107.453 81.3421L104.468 81.6406C104.587 82.8299 104.552 84.058 104.479 85.3657C104.408 86.6381 104.297 88.0376 104.297 89.3978H107.297ZM107.453 81.3421C107.19 78.7102 106.404 76.2041 105.55 73.8418C104.675 71.4192 103.767 69.2396 103.104 66.9832L100.226 67.8297C100.922 70.1984 101.919 72.6189 102.729 74.8613C103.561 77.1639 104.243 79.3878 104.468 81.6406L107.453 81.3421ZM103.104 66.9832C102.375 64.5043 100.951 61.8263 99.5725 59.7587L97.0764 61.4228C98.3527 63.3374 99.61 65.7363 100.226 67.8296L103.104 66.9832ZM99.5725 59.7587C98.6834 58.4251 97.7851 57.0382 96.8582 55.6874L94.3846 57.385C95.2983 58.7163 96.1555 60.0415 97.0764 61.4228L99.5725 59.7587ZM96.8582 55.6874C95.7519 54.0754 94.467 52.6031 93.2911 51.2134L91.0009 53.1512C92.2238 54.5964 93.3855 55.9291 94.3846 57.3849L96.8582 55.6874ZM93.2911 51.2134C89.6734 46.9379 85.3664 43.9706 80.7717 41.2138L79.2283 43.7863C83.7317 46.4884 87.703 49.2537 91.0009 53.1512L93.2911 51.2134ZM56 28.6559C56 26.9764 55.898 24.9492 55.7991 22.9732C55.699 20.9739 55.6019 19.0256 55.6019 17.4299H52.6019C52.6019 19.1163 52.7039 21.1469 52.8028 23.1232C52.9029 25.1226 53 27.0673 53 28.6559H56ZM55.6019 17.4299C55.6019 15.4598 55.8602 13.5451 56.1213 11.4568L53.1444 11.0847C52.891 13.1124 52.6019 15.233 52.6019 17.4299H55.6019ZM56.1213 11.4568C56.2291 10.5945 56.3338 9.88895 56.3522 9.18952C56.372 8.44291 56.2971 7.72053 56.1064 6.71935L53.1594 7.28069C53.3256 8.15372 53.3655 8.649 53.3533 9.11035C53.3399 9.61888 53.2661 10.1116 53.1444 11.0847L56.1213 11.4568ZM56.1064 6.71935C56.0603 6.47745 56.0103 6.26856 55.9804 6.1354C55.9486 5.99379 55.9325 5.90934 55.9228 5.82348C55.9046 5.66316 55.8956 5.38526 55.9869 4.69755L53.0131 4.30245C52.9069 5.10167 52.8843 5.65373 52.9419 6.16166C52.9701 6.40992 53.0143 6.61917 53.0533 6.79274C53.0941 6.97475 53.1254 7.10253 53.1594 7.28069L56.1064 6.71935ZM55.9869 4.69755C56.1346 3.58586 56.1329 2.49197 56.1329 1.80369H53.1329C53.1329 2.50803 53.1311 3.41414 53.0131 4.30245L55.9869 4.69755ZM75.6476 30.1559H79.9049V27.1559H75.6476V30.1559Z" fill="black"/>
</svg>
